<?xml version="1.0" encoding="UTF-8" standalone="no"?>
<svg
   viewBox="0 0 3891.2801 5386.6273"
   width="1029.5679mm"
   height="1425.2118mm"
   version="1.1"
   id="svg1660"
   xmlns="http://www.w3.org/2000/svg"
   xmlns:svg="http://www.w3.org/2000/svg">
  <desc
     id="desc840">Planta_semplice.dxf - scale = 1.0, origin = (0.0, 0.0), method = manual</desc>
  <defs
     id="defs856">
    <marker
       id="DistanceX"
       orient="auto"
       refX="0"
       refY="0"
       style="overflow:visible">
      <path
         d="M 3,-3 -3,3 M 0,-5 V 5"
         style="stroke:#000000;stroke-width:0.5"
         id="path842" />
    </marker>
    <pattern
       id="Hatch"
       patternUnits="userSpaceOnUse"
       width="8"
       height="8"
       x="0"
       y="0">
      <path
         d="M8 4 l-4,4"
         stroke="#000000"
         stroke-width="0.25"
         linecap="square"
         id="path845" />
      <path
         d="M6 2 l-4,4"
         stroke="#000000"
         stroke-width="0.25"
         linecap="square"
         id="path847" />
      <path
         d="M4 0 l-4,4"
         stroke="#000000"
         stroke-width="0.25"
         linecap="square"
         id="path849" />
    </pattern>
    <symbol
       id="*Model_Space" />
    <symbol
       id="*Paper_Space" />
    <symbol
       id="*Paper_Space0" />
    <symbol
       id="_Oblique" />
  </defs>
  <g
     id="g860"
     transform="translate(1178.0694,3624.243)">
    <path
       style="fill:none;stroke:#000000;stroke-linecap:round"
       d="m -1.88976,1124.41 3.77952,-3.78"
       id="path858" />
  </g>
  <g
     id="g862"
     transform="translate(1178.0694,3624.243)" />
  <g
     id="g864"
     transform="translate(1178.0694,3624.243)" />
  <g
     id="g866"
     transform="translate(1178.0694,3624.243)" />
  <g
     id="g868"
     transform="translate(1178.0694,3624.243)" />
  <g
     id="g870"
     transform="translate(1178.0694,3624.243)" />
  <g
     id="g1388"
     transform="translate(1178.0694,3624.243)">
    <path
       d="m -458.468,-2522.5394 -0.6049,-3.6294 40.52844,-236.5167 13.6103,-82.5692 309.709924,58.6755 -71.983364,311.2222 -26.31324,10.2833 -252.24421,-47.4848 -3.32697,-1.2098 -3.02451,-1.5122 -2.72206,-2.1172 -2.4196,-2.7221 z"
       style="fill:none;stroke:#000000;stroke-width:1.1"
       id="path872" />
    <path
       d="m -222.8586,-3231.1823 158.181924,36.5966 46.275018,10.8882 8.166179,20.2643 -1.814707,9.376 -79.847088,344.1893 -12.098046,9.0735 -204.45694,-38.7137 z"
       style="fill:none;stroke:#000000;stroke-width:1.1"
       id="path874" />
    <path
       d="m 3.677271,-3160.4087 20.264224,-13.3079 117.351025,27.5231 v 0.6049 l -90.130427,374.4344 -127.634361,-24.4985 -3.326962,-4.5368 81.056893,-350.2383 z"
       style="fill:none;stroke:#000000;stroke-width:1.1"
       id="path876" />
    <path
       d="m 1343.2332,-2010.1872 -167.5579,-31.4549 -24.1961,127.0294 -0.3025,1.5123 1.2098,6.3515 1.5123,3.9318 1.8147,3.327 2.722,3.0245 2.1172,1.2098 163.9285,30.85 24.4985,-136.4054 0.3025,-0.6049 a 7.534008,7.534008 0 0 0 -6.049,-8.7711 z"
       style="fill:none;stroke:#000000;stroke-width:1.1"
       id="path878" />
    <path
       d="m 1068.0027,-2237.0255 -14.8201,84.0814 91.0377,17.2397 -2.722,11.4931 -91.0378,-17.8446 -45.3677,238.3315 123.0976,23.5912 85.5937,-449.1399 -23.8936,-4.2343 -1.2098,6.3514 -99.5065,-21.1715 z"
       style="fill:none;stroke:#000000;stroke-width:1.1"
       id="path880" />
    <path
       d="m 997.22911,-1905.2367 45.06519,-238.3314 -102.53089,-20.2643 -47.48483,238.3315 z"
       style="fill:none;stroke:#000000;stroke-width:1.1"
       id="path882" />
    <path
       d="m 778.25452,-1952.1166 v 0.9074 l 0.30245,1.2098 0.30245,0.9073 0.60491,0.9074 1.51225,1.5122 105.25298,19.9618 45.97257,-238.6339 -108.88239,-21.7765 z"
       style="fill:none;stroke:#000000;stroke-width:1.1"
       id="path884" />
    <path
       d="m 676.9334,-2213.4343 -46.87991,238.6339 123.09759,22.9863 5.44412,-0.605 45.06521,-234.702 -5.74657,-3.6294 z"
       style="fill:none;stroke:#000000;stroke-width:1.1"
       id="path886" />
    <path
       d="m -209.55075,-2242.7721 58.07061,-249.5222 137.010346,25.1035 -54.743648,261.9226 -131.868678,-24.4985 a 10.80964,10.80964 0 0 1 -8.46863,-13.0054 z"
       style="fill:none;stroke:#000000;stroke-width:1.1"
       id="path888" />
    <path
       d="m -476.91752,-2503.7874 -10.28333,17.2397 -52.32404,43.553 h -0.30245 l -0.30245,0.3024 h -1.51226 l -0.30245,-0.3024 h -0.30245 l -0.30245,-0.3025 v -0.3024 l -0.30245,-0.3025 v -1.2098 l 2.11715,-11.1907 -16.63481,-1.5122 -23.89363,132.4736 a 24.655348,24.655348 0 0 1 -28.73286,19.6593 l -352.65797,-66.5393 -32.96717,1.5123 h -0.90736 l -0.90735,-0.3025 -0.6049,-0.3024 -0.90735,-0.3025 -0.60491,-0.6049 -0.60489,-0.9073 -0.6049,-0.6049 -0.6049,-1.8147 v -0.6049 l -4.2343,-177.5388 4.5367,-182.378 17.84465,-707.7356 -32.36225,-7.5613 -0.3025,45.9726 -0.6049,5.4441 -0.9073,2.4196 -1.5123,2.4196 -1.8147,2.1172 -1.8147,1.8147 -2.4196,1.5123 -2.4196,1.2098 -2.7221,0.6049 -2.722,0.3024 h -3.0245 l -101.0187,1.8147"
       style="fill:none;stroke:#000000;stroke-width:1.1"
       id="path890" />
    <path
       d="m 1756.9863,-2501.3678 59.2804,-242.8682 257.6883,63.2123 -10.5858,251.6393 z"
       style="fill:none;stroke:#000000;stroke-width:1.1"
       id="path892" />
    <path
       d="m 682.07507,-3004.6464 -32.66471,170.5824 -28.43041,-4.5368 -93.75984,-16.0299 36.29413,-192.9638 121.58535,28.4304 -0.30246,0.6049"
       style="fill:none;stroke:#000000;stroke-width:1.1"
       id="path894" />
    <path
       d="m 193.01166,-2744.236 -129.449072,-24.801 89.223072,-374.132 v -0.3025 l 121.58534,28.4304 z"
       style="fill:none;stroke:#000000;stroke-width:1.1"
       id="path896" />
    <path
       d="m -235.25909,-3234.2068 -19.96177,85.5937 -65.93434,306.6854 -81.35935,-15.425 h -0.90735 l 45.67012,-265.8545 22.98628,-134.2883 z"
       style="fill:none;stroke:#000000;stroke-width:1.1"
       id="path898" />
    <path
       d="m 1410.6798,-2027.1245 26.3132,-140.3373 -228.3506,-42.948 -1.5122,-0.3025 -28.128,151.2256 0.6049,0.3024 218.6722,40.8309 a 11.285354,11.285354 0 0 0 12.4005,-8.7711 z"
       style="fill:none;stroke:#000000;stroke-width:1.1"
       id="path900" />
    <path
       d="m 696.29027,-1620.0253 8.46864,-38.1088 -585.84777,-111.9069 -7.56128,43.8554 566.4909,108.8824 7.25883,1.8147 z"
       style="fill:none;stroke:#000000;stroke-width:1.1"
       id="path902" />
    <path
       d="m 366.61858,-1380.484 36.29413,-260.108 0.60491,-5.1416 -8.77109,-12.0981 -96.48189,-18.752 -51.41669,282.1869 113.41916,19.0544 z"
       style="fill:none;stroke:#000000;stroke-width:1.1"
       id="path904" />
    <path
       d="m 82.919458,-1421.9198 139.429952,23.2887 51.71914,-282.1869 -156.06477,-30.2451 -10.58578,8.4687 -11.190694,75.6127 -27.52305,185.4025 a 17.649155,17.649155 0 0 0 14.215202,19.6594 z"
       style="fill:none;stroke:#000000;stroke-width:1.1"
       id="path906" />
    <path
       d="m 939.46095,-2178.35 2.72206,3.3269 104.64809,20.2643 36.5966,-192.0565 -106.76526,-23.5912 -11.79559,62.0025 z"
       style="fill:none;stroke:#000000;stroke-width:1.1"
       id="path908" />
    <path
       d="m 972.42812,-2371.3138 -109.18484,-23.8937 -37.80639,197.5006 104.64808,20.2642 3.93187,-1.5122 z"
       style="fill:none;stroke:#000000;stroke-width:1.1"
       id="path910" />
    <path
       d="m 844.49131,-2399.1393 -38.10884,197.803 -128.54171,-24.4985 20.56667,-107.6726 17.23972,-86.501 z"
       style="fill:none;stroke:#000000;stroke-width:1.1"
       id="path912" />
    <path
       d="m 541.73777,-2225.8348 -42.04071,226.5358 123.7025,23.2888 43.25051,-239.5413 -112.51181,-21.1716 z"
       style="fill:none;stroke:#000000;stroke-width:1.1"
       id="path914" />
    <path
       d="m 414.70831,-2262.7339 -6.95638,30.5476 -16.63481,83.174 -15.425,84.6863 -7.25883,40.5285 122.49269,22.9863 45.36767,-239.2388 z"
       style="fill:none;stroke:#000000;stroke-width:1.1"
       id="path916" />
    <path
       d="m 535.9912,-2252.753 -116.14122,-21.7765 -2.41961,-4.2343 38.41129,-201.7349 122.49269,22.9863 -37.80639,201.7349 z"
       style="fill:none;stroke:#000000;stroke-width:1.1"
       id="path918" />
    <path
       d="m 404.12252,-2264.851 -123.40005,-22.9863 -43.85541,230.1653 -1.8147,9.0735 124.3074,23.2887 3.93186,-21.474 22.98628,-120.9804 z"
       style="fill:none;stroke:#000000;stroke-width:1.1"
       id="path920" />
    <path
       d="m 123.4479,-2088.2196 6.95638,8.1662 8.16618,6.6539 9.07353,5.7466 9.98089,4.2343 10.28334,2.7221 48.99707,9.0735 8.16618,-8.4686 67.14414,-344.1894 -4.23431,-7.2588 -102.53092,-18.752 -184.79762,-34.177 -53.836294,262.2251 67.446594,12.4005 14.820103,5.4442 6.351473,3.6294 8.16618,4.5367 9.678435,7.5613 16.937261,14.2152 15.122555,16.3324 z"
       style="fill:none;stroke:#000000;stroke-width:1.1"
       id="path922" />
    <path
       d="m 343.6323,-2692.2144 -48.69463,265.552 -4.53676,5.1417 -146.38633,-28.1279 54.74365,-281.2796 137.91769,26.0108 z"
       style="fill:none;stroke:#000000;stroke-width:1.1"
       id="path924" />
    <path
       d="m 182.12342,-2733.9527 -57.16326,280.6746 -121.887791,-23.2887 57.163257,-280.6746 z"
       style="fill:none;stroke:#000000;stroke-width:1.1"
       id="path926" />
    <path
       d="m -83.428644,-2784.462 129.75152,24.801 -58.373062,280.0697 -136.405444,-26.0108 z"
       style="fill:none;stroke:#000000;stroke-width:1.1"
       id="path928" />
    <path
       d="m 2018.9089,-1698.0577 -2.7221,-3.0245 -3.0245,-2.7221 -3.6294,-2.1171 -3.9318,-1.5123 -3.9319,-0.6049 -4.2343,-0.3024 1.2098,-10.8883 -587.36,-109.7897 a 12.363403,12.363403 0 0 0 -14.8201,10.2833 l -0.3025,1.5123 -16.3324,100.1113 a 13.090415,13.090415 0 0 0 10.2834,15.1226 l 602.1801,112.2093 a 25.343931,25.343931 0 0 0 29.6402,-23.8936 l 1.8147,-68.6564 -0.3024,-4.2343 -0.9074,-3.9319 -1.5122,-3.9319 z"
       style="fill:none;stroke:#000000;stroke-width:1.1"
       id="path930" />
    <path
       d="m 720.78881,-1655.1096 340.25749,64.4221 28.1279,-143.9668 255.5712,47.4849 -34.177,184.7976 -0.9073,5.1416 -59.8853,-10.8882 -127.6344,-23.8936 -121.8878,-22.9863 -155.76229,-30.2451 -127.93681,-25.7084 -4.23432,-5.4441 z"
       style="fill:none;stroke:#000000;stroke-width:1.1"
       id="path932" />
    <path
       d="m 1479.9411,-2337.1368 574.9595,109.1848 8.1662,-192.3589 -64.1197,-13.3078 0.3025,-0.9074 -0.3025,-0.6049 v -0.9073 l -0.6049,-1.2099 -0.6049,-0.6049 -0.6049,-0.3024 -0.6049,-0.6049 -0.6049,-0.3025 -40.8309,-8.771 -177.8412,-36.2942 -228.9555,-53.5338 -29.3378,-6.6539 z"
       style="fill:none;stroke:#000000;stroke-width:1.1"
       id="path934" />
    <path
       d="m 1453.9303,-2175.9304 229.2579,44.1579 60.4902,11.1906 304.5683,56.5584 6.3514,-152.1329 -213.228,-40.5285 -363.2437,-70.7735 -27.5231,146.6888 a 3.91037,3.91037 0 0 0 3.327,4.8392 z"
       style="fill:none;stroke:#000000;stroke-width:1.1"
       id="path936" />
    <path
       d="m 1430.944,-1844.7465 -97.3893,-18.147 10.5858,-59.2804 16.3324,-84.6863 97.0868,18.147 v 0.6049 z"
       style="fill:none;stroke:#000000;stroke-width:1.1"
       id="path938" />
    <path
       d="m 1063.4659,-2583.0296 27.8255,-144.2692 3.0245,-15.425 -101.01865,-18.4495 -58.67551,-11.4931 -30.24511,164.2309 153.34267,29.3378 z"
       style="fill:none;stroke:#000000;stroke-width:1.1"
       id="path940" />
    <path
       d="m 916.47467,-2771.4566 -13.6103,-2.4196 -246.19519,-45.0652 -28.73285,153.3427 6.65392,5.7465 250.73196,47.7873 z"
       style="fill:none;stroke:#000000;stroke-width:1.1"
       id="path942" />
    <path
       d="m 516.02942,-2856.4454 37.80639,-193.2662 -123.40005,-29.0353 -0.30245,0.6049 -37.80638,200.8275 z"
       style="fill:none;stroke:#000000;stroke-width:1.1"
       id="path944" />
    <path
       d="m 1250.3807,-2522.8418 -4.5368,-4.2343 -5.4441,-3.327 -5.7466,-2.722 -6.049,-1.8148 -6.049,-0.9073 -91.0378,-16.9373 -38.7137,194.4761 91.9451,19.9618 1.2098,-4.2344 29.3378,5.4442 z"
       style="fill:none;stroke:#000000;stroke-width:1.1"
       id="path946" />
    <path
       d="m 1010.537,-2572.1413 -39.92358,184.7976 -0.30245,2.1171 -104.64808,-22.6838 36.29413,-188.7295 106.16038,20.2642 z"
       style="fill:none;stroke:#000000;stroke-width:1.1"
       id="path948" />
    <path
       d="m 646.99075,-2820.7561 -125.21476,-22.9863 -25.10344,151.2255 2.72206,6.9564 106.76524,20.2642 11.79559,-3.6294 11.19069,-58.978 z"
       style="fill:none;stroke:#000000;stroke-width:1.1"
       id="path950" />
    <path
       d="m 489.41373,-2479.2889 89.82797,17.2398 34.78188,-185.4026 -4.53677,-5.4441 -111.302,-21.1716 -6.35147,4.2344 -34.78188,182.9829 z"
       style="fill:none;stroke:#000000;stroke-width:1.1"
       id="path952" />
    <path
       d="m 420.45488,-3080.5616 v -0.6049 l -143.05937,-33.2697 -76.82258,371.41 138.82505,26.6157 12.09805,-5.7466 z"
       style="fill:none;stroke:#000000;stroke-width:1.1"
       id="path954" />
    <path
       d="m 408.96174,-2280.8809 36.89903,-196.8957 -124.9123,-19.6593 -37.20149,193.8711 5.14167,4.2343 115.53632,21.7765 z"
       style="fill:none;stroke:#000000;stroke-width:1.1"
       id="path956" />
    <path
       d="m 370.55045,-2698.5659 -12.70295,8.1662 -34.78187,188.1246 123.40004,20.5666 35.68923,-190.2417 -4.83922,-6.049 z"
       style="fill:none;stroke:#000000;stroke-width:1.1"
       id="path958" />
    <path
       d="m 830.57856,-789.4946 -0.90735,0.30246 -229.25793,-39.92355 -3.02451,-2.41961 -3.02451,-3.02451 -2.41961,-3.62941 -1.81471,-3.93187 -1.2098,-3.93186 35.68923,-200.22265 1.51225,-2.722 2.11716,-2.4196 2.72206,-1.8147 2.72206,-1.5123 3.02451,-0.9074 3.02451,-0.6049 h 3.32696 l 3.02451,0.6049 143.05937,25.4059 60.49022,10.8883 4.83922,2.1171 4.53676,2.7221 3.93187,3.327 3.02451,3.9318 2.72206,4.5368 1.81471,4.8392 0.90735,5.14167 -36.59658,201.12998 z"
       style="fill:none;stroke:#000000;stroke-width:1.1"
       id="path960" />
    <path
       d="m 385.37055,538.2657 -0.90735,-6.95637 -2.11716,-6.65393 -3.32696,-5.74657 -0.6049,-0.6049 1.8147,-10.58579 -15.12255,-2.72206 0.30245,-0.6049 16.02991,-98.59905 7.25882,1.2098 73.49562,11.79559 -36.89903,198.40792 -0.30246,2.72206 -71.98336,-14.8201 0.60491,-3.32697 5.74657,1.20981 3.02451,-19.96177 5.44412,0.6049 1.51225,-11.79559 6.04902,-4.83922 4.53677,-6.35148 3.32696,-7.56127 1.81471,-7.86373 z"
       style="fill:none;stroke:#000000;stroke-width:1.1"
       id="path962" />
    <path
       d="m 363.89652,404.88477 6.65393,0.90736 -15.72746,96.78435 v 0.90735 l -12.09804,-2.11716 -1.81471,9.67844 -6.04902,5.14166 -4.83922,6.35148 -3.32696,7.56127 -1.81471,8.16618 v 8.46863 l 1.51226,7.86373 3.32696,7.25883 2.41961,3.02451 -2.11716,12.09804 2.72206,0.60491 -3.32696,19.35687 6.65392,1.51225 -0.30245,3.32696 -68.95885,-13.91275 28.73286,-193.5687 h 0.30245 z"
       style="fill:none;stroke:#000000;stroke-width:1.1"
       id="path964" />
    <path
       d="m 391.41957,694.02802 -38.71374,-7.25883 -9.67843,-11.19069 8.16618,-57.46571 3.93186,-3.02451 54.74365,10.58579 3.02451,3.32696 -10.28334,58.67552 z"
       style="fill:none;stroke:#000000;stroke-width:1.1"
       id="path966" />
    <path
       d="m 378.11172,299.32934 -67.44659,-10.88824 -12.40049,89.22307 67.74904,11.49314 7.25883,1.20981 13.00539,-81.96425 z"
       style="fill:none;stroke:#000000;stroke-width:1.1"
       id="path968" />
    <path
       d="m 573.79758,-142.55171 -77.12503,-14.8201 1.81471,-9.37598 -21.47403,-3.62942 13.30785,-86.80346 12.70295,-9.37598 9.37598,-6.95638 0.90735,-4.83922 7.86373,1.81471 197.50057,46.27502 10.28333,27.8255 -16.93726,89.22307 -13.0054,8.77108 -127.3319,-26.01079 z"
       style="fill:none;stroke:#000000;stroke-width:1.1"
       id="path970" />
    <path
       d="m 468.5446,-574.75432 -23.28873,14.8201 -34.17698,218.06724 -0.30245,2.72206 -1.8147,12.09805 12.09804,10.28333 38.41129,9.07354 2.11716,0.6049 2.41961,-11.79559 26.61569,-19.35687 36.89903,-216.25254 -20.26422,-14.2152 z"
       style="fill:none;stroke:#000000;stroke-width:1.1"
       id="path972" />
    <path
       d="m 501.51177,-846.3554 59.58287,10.28334 7.86372,-10.58579 31.75737,-203.24715 -5.14167,-14.5176 -68.95885,-12.703 -33.87452,214.43784 z"
       style="fill:none;stroke:#000000;stroke-width:1.1"
       id="path974" />
    <path
       d="m 587.71033,-2462.654 259.20059,50.2068 35.68923,-186.3098 -254.66382,-48.3922 -5.74657,3.0245 z"
       style="fill:none;stroke:#000000;stroke-width:1.1"
       id="path976" />
    <path
       d="m 689.63635,-3002.8317 -31.45491,170.28 244.68293,41.4358 16.93726,3.0245 19.05442,-97.6917 13.91275,-70.7736 -260.41039,-60.7927 v 0.3025"
       style="fill:none;stroke:#000000;stroke-width:1.1"
       id="path978" />
    <path
       d="m 1034.4306,363.75142 0.9074,-4.53676 11.7955,2.41961 38.4113,7.86372 118.2584,22.98629 6.9564,1.2098 -23.5912,127.02946 -13.6103,9.37598 -169.0702,-25.10344 z"
       style="fill:none;stroke:#000000;stroke-width:1.1"
       id="path980" />
    <path
       d="m 1202.8959,-933.15886 4.8392,-19.96178 254.3613,45.06522 -23.8936,122.49269 -14.8201,77.72993 -4.2343,21.47403 -241.0535,-42.04071 -0.3025,-0.30245 -7.2588,-19.05441 3.6294,-14.82011 9.9809,2.11716 10.5858,-55.0461 -9.9809,-17.23971 -2.4196,-15.72746 z"
       style="fill:none;stroke:#000000;stroke-width:1.1"
       id="path982" />
    <path
       d="m 1211.3645,-972.47751 243.4731,43.55296 3.0245,-0.6049 3.0245,-0.90736 2.7221,-1.2098 5.1417,-39.62109 3.3269,-27.8255 30.5476,-166.0457 -242.2633,-41.4358 -11.4932,63.8172 -27.8255,119.4682 z"
       style="fill:none;stroke:#000000;stroke-width:1.1"
       id="path984" />
    <path
       d="m 1486.8974,-930.73926 -0.3024,-2.11715 14.8201,-89.22309 5.1417,-31.4549 18.4495,-107.6726 271.2986,46.275 57.4657,9.9809 -8.1662,245.28785 -352.6579,-62.60738 -1.8148,-1.2098 -1.2098,-1.51226 -2.4196,-3.62941 z"
       style="fill:none;stroke:#000000;stroke-width:1.1"
       id="path986" />
    <path
       d="m 1263.991,-1225.0242 250.127,42.9481 8.1662,-45.3677 13.0054,-73.798 19.0544,-98.5991 7.2589,-36.899 -238.634,-43.8554 -49.9044,216.5549 z"
       style="fill:none;stroke:#000000;stroke-width:1.1"
       id="path988" />
    <path
       d="m 1564.9298,-1390.7674 9.9809,-44.1578 121.2829,22.9863 152.4353,28.1279 13.9128,11.7956 -8.1662,248.0099 -55.9534,-9.376 -274.6256,-47.1824 0.9073,-3.6294 14.2152,-71.076 19.3569,-104.6481 z"
       style="fill:none;stroke:#000000;stroke-width:1.1"
       id="path990" />
    <path
       d="m 347.56416,-1110.6977 -3.62941,0.9074 -2.72206,2.7221 -0.6049,1.2098 -30.85001,225.93093 159.39172,27.52305 12.70295,-11.19069 33.87452,-215.64759 -100.11131,-18.4496 -66.84169,-12.7029 z"
       style="fill:none;stroke:#000000;stroke-width:1.1"
       id="path992" />
    <path
       d="m 982.10656,-2382.5045 103.74074,22.6838 36.5966,-192.3589 -2.1172,-2.722 -98.9015,-18.752 -39.01619,190.5442 z"
       style="fill:none;stroke:#000000;stroke-width:1.1"
       id="path994" />
    <path
       d="m 808.19718,753.00598 6.04902,1.2098 1.81471,-8.77108 34.47942,-160.90398 17.54217,-79.84709 -5.74657,-1.2098 -46.57747,-9.98089 -50.81179,265.24961 40.52845,7.25883 z"
       style="fill:none;stroke:#000000;stroke-width:1.1"
       id="path996" />
    <path
       d="m 752.84863,-267.46401 13.6103,-74.40297 272.81087,70.16866 -12.7029,58.07061 -2.7221,11.79559 -34.47942,18.14706 -215.64763,-52.02158 z"
       style="fill:none;stroke:#000000;stroke-width:1.1"
       id="path998" />
    <path
       d="m 1056.812,-167.3527 61.0951,14.51766 13.6103,-61.70003 51.7191,-239.54126 0.9074,-5.14167 -90.4329,-14.2152 -17.2397,78.03238 -43.553,195.38341 4.5368,6.04902 z"
       style="fill:none;stroke:#000000;stroke-width:1.1"
       id="path1000" />
    <path
       d="m 858.40406,-598.95041 244.68294,40.8309 9.0735,-41.13335 -246.19516,-40.52844 -0.6049,3.62941 -6.65393,35.99168 z"
       style="fill:none;stroke:#000000;stroke-width:1.1"
       id="path1002" />
    <path
       d="m 868.6874,-653.99651 -0.30245,1.51226 246.19515,41.73825 8.4687,-37.20148 -5.1417,-4.83922 -241.05352,-44.76276 z"
       style="fill:none;stroke:#000000;stroke-width:1.1"
       id="path1004" />
    <path
       d="m 838.13984,-719.62839 288.84076,53.53384 7.5613,-33.57207 -8.4686,-18.14707 -280.37219,-49.29952 z"
       style="fill:none;stroke:#000000;stroke-width:1.1"
       id="path1006" />
    <path
       d="m 895.30309,-1038.4118 40.226,-215.3452 8.16618,-6.9564 296.09963,50.5093 -12.4005,65.9344 -22.0789,101.926 -14.2152,66.23678 -289.14328,-51.11428 a 8.226781,8.226781 0 0 1 -6.65393,-11.1906 z"
       style="fill:none;stroke:#000000;stroke-width:1.1"
       id="path1008" />
    <path
       d="m 1521.3769,-2556.7163 13.9127,-74.403 32.6647,-174.2118 227.1408,55.9534 -56.5584,243.7756 z"
       style="fill:none;stroke:#000000;stroke-width:1.1"
       id="path1010" />
    <path
       d="m 1510.4886,-2559.1359 46.275,-248.9173 -10.2833,58.0706 z"
       style="fill:none;stroke:#000000;stroke-width:1.1"
       id="path1012" />
    <path
       d="m 1984.127,-610.1411 -31.1524,-0.90735 h -1.5123 l -33.2696,-1.81471 h -0.9074 l -1.8147,-1.8147 v -1.20981 -1.2098 l 22.6839,-793.02673 15.425,-124.6099 6.049,-0.3024 1.2098,-4.8393 2.4196,-4.8392 2.7221,-4.2343 3.6294,-3.6294 4.2343,-3.0245 4.8392,-2.4196 4.8392,-1.2098 5.1417,-0.9074 5.1417,0.3025 5.1416,1.2098 4.8393,1.8147 4.2343,2.722 3.9318,3.327 3.327,3.9319 2.7221,4.5367 1.8147,4.8392 -2.4196,95.877 -1.8148,50.8118 -1.8147,88.3157 -0.9073,48.6947 -1.8147,39.9235 -1.8147,54.1388 -0.3025,39.6211 -2.4196,92.2475 -3.0245,123.70254 -1.8147,79.54464 -2.7221,102.83337 -1.8147,62.90983 -1.2098,23.89363 -1.5122,20.26423 a 7.918666,7.918666 0 0 1 -10.2834,4.53676 z"
       style="fill:none;stroke:#000000;stroke-width:1.1"
       id="path1014" />
    <path
       d="m 264.08766,-651.27445 28.73286,-212.62311 -148.20104,-25.4059 -44.762761,231.07264 142.152011,22.98628 h 0.30245 a 18.804151,18.804151 0 0 0 21.77648,-16.02991 z"
       style="fill:none;stroke:#000000;stroke-width:1.1"
       id="path1016" />
    <path
       d="m 30.89787,-1167.5585 150.92309,27.2206 -13.30784,63.8172 -19.05442,94.66721 -11.79559,70.4711 -0.30246,1.81471 -130.356417,-22.68383 -11.795592,-10.88824 31.757365,-215.34515 0.907353,-5.7466 z"
       style="fill:none;stroke:#000000;stroke-width:1.1"
       id="path1018" />
    <path
       d="m -192.31104,-1207.7845 -7.56127,4.2344 -31.45492,228.95544 -0.30245,1.2098 214.135375,36.89903 v -0.6049 l 1.209804,-7.86373 32.967169,-221.39424 -2.117157,-3.0245 z"
       style="fill:none;stroke:#000000;stroke-width:1.1"
       id="path1020" />
    <path
       d="m 633.38045,-1233.4928 10.28333,-72.2858 1.20981,-10.2833 -78.33483,-13.3079 -38.10884,240.7511 71.68091,13.0054 6.35147,-3.0245 z"
       style="fill:none;stroke:#000000;stroke-width:1.1"
       id="path1022" />
    <path
       d="m 158.22978,354.67789 128.54172,20.86913 11.79559,-82.8716 0.90735,-6.04903 -123.09759,-19.96177 -15.12256,4.83922 -9.98089,73.79807 a 8.544717,8.544717 0 0 0 6.95638,9.37598 z"
       style="fill:none;stroke:#000000;stroke-width:1.1"
       id="path1024" />
    <path
       d="m 409.26419,-13.40509 4.23431,-24.80099 5.44412,0.302451 0.30245,-2.722059 24.80099,4.234315 12.4005,-79.544637 -1.81471,-0.30245 -21.77648,-3.93187 1.20981,-6.95637 h -0.90736 l -54.44119,-9.37599 -18.14707,115.536323 48.99708,7.561277"
       style="fill:none;stroke:#000000;stroke-width:1.1"
       id="path1026" />
    <path
       d="m 282.53718,-650.06464 27.8255,-206.27165 0.6049,-4.23431 156.97212,27.8255 6.65392,9.37598 -11.19069,71.68091 -13.91275,8.46863 -3.02451,19.05442 10.28334,13.91275 -1.20981,8.46863 -12.09804,77.42748 a 21.61533,21.61533 0 0 1 -24.80099,17.84462 L 300.9867,-625.86855 h -0.30246 a 21.551251,21.551251 0 0 1 -18.14706,-24.19609 z"
       style="fill:none;stroke:#000000;stroke-width:1.1"
       id="path1028" />
    <path
       d="m 622.79466,-1615.791 59.28041,11.1907 7.86373,16.9373 -27.2206,169.675 -15.425,84.0814 -8.77108,5.4442 -70.16866,-11.7956 42.04071,-266.4595 a 10.487732,10.487732 0 0 1 12.40049,-9.0735 z"
       style="fill:none;stroke:#000000;stroke-width:1.1"
       id="path1030" />
    <path
       d="m 590.43239,-1621.5376 -21.47403,-3.9318 -152.7378,-28.4304 -22.68383,165.1383 -14.8201,107.6726 0.90735,2.4196 1.2098,2.1171 1.51226,1.8147 1.81471,1.8147 2.11715,1.2098 2.41961,0.9074 2.41961,0.6049 166.04565,28.128 42.0407,-266.7619 a 10.956934,10.956934 0 0 0 -8.77108,-12.703 z"
       style="fill:none;stroke:#000000;stroke-width:1.1"
       id="path1032" />
    <path
       d="m 356.33525,-1364.4541 6.95637,8.1662 -31.15246,222.604 -7.86373,8.771 -116.44367,-21.7764 -10.58579,-2.1172 5.14167,-30.5476 22.68383,-123.7025 15.12256,-81.0568 z"
       style="fill:none;stroke:#000000;stroke-width:1.1"
       id="path1034" />
    <path
       d="m 194.82636,-1132.4741 -1.8147,1.5122 -1.51226,2.1172 -26.01079,136.70787 -16.02991,81.0569 6.35147,4.53676 0.6049,0.30245 139.73241,23.89364 v -0.90735 l 31.45491,-217.76477 -13.6103,-14.8201 -107.67259,-19.9618 h -2.41961 l -2.4196,0.3025 -2.41961,0.6049 -2.11716,0.9073 z"
       style="fill:none;stroke:#000000;stroke-width:1.1"
       id="path1036" />
    <path
       d="m 481.24755,-2689.1899 6.04902,-7.2588 26.91815,-148.806 -123.7025,-22.6838 -27.52305,147.2937 9.07353,10.5858 z"
       style="fill:none;stroke:#000000;stroke-width:1.1"
       id="path1038" />
    <path
       d="m 1884.3182,-1388.0453 -232.2825,-47.7873 -101.6235,-17.5421 -228.3506,-42.0407 3.3269,-18.4496 31.455,-171.1873 578.5889,107.6726 0.3025,4.2343 7.2588,0.9074 -19.6593,159.0892 -11.1907,385.9276 -9.6785,278.25505 -3.3269,131.26378 v 1.2098 l -0.3025,0.30245 -0.6049,1.2098 -0.3024,0.30246 -0.3025,0.30245 h -0.9073 l -0.9074,-0.30245 -1.2098,-0.60491 -1.2098,-1.2098 -29.6402,-0.6049 -5.4441,-4.23432 3.0245,-94.66719 z"
       style="fill:none;stroke:#000000;stroke-width:1.1"
       id="path1040" />
    <path
       d="m -630.26022,-1051.1148 -1.81471,-3.9319 -0.30245,-39.3186 -3.62941,-180.8658 12.40049,-5.1416 407.70408,68.6564 3.93186,5.1416 -32.05981,229.86288 v 1.2098 l -369.29279,-63.81718 -3.93186,-1.2098 -3.93187,-1.8147 -3.62941,-2.4196 -3.02451,-3.0245 z"
       style="fill:none;stroke:#000000;stroke-width:1.1"
       id="path1042" />
    <path
       d="m 552.32356,-1331.487 -167.55791,-28.1279 -8.77108,5.7466 -29.64021,222.9064 2.41961,8.4686 157.87947,29.9427 8.16618,1.5123"
       style="fill:none;stroke:#000000;stroke-width:1.1"
       id="path1044" />
    <path
       d="m 156.11262,369.80045 128.23927,21.77647 -29.94266,192.66135 -8.16618,72.89071 -0.30245,1.51226 -1.20981,3.02451 -0.90735,1.2098 -1.20981,0.90736 -1.51225,0.90735 -1.51226,0.6049 -1.51225,0.30246 h -3.02451 l -119.16573,-20.56668 -0.60491,-3.32696 -1.2098,-3.62942 -1.51226,-3.02451 -2.11715,-2.72206 -2.72206,-2.72205 -2.72206,-2.11716 42.34315,-251.63931 a 7.596527,7.596527 0 0 1 8.77108,-6.04902 z"
       style="fill:none;stroke:#000000;stroke-width:1.1"
       id="path1046" />
    <path
       d="m 192.40675,-173.70417 7.25883,8.77108 v 1.51226 l -13.91275,110.394647 -0.6049,2.419609 -0.60491,0.907353 -1.51225,1.512255 -1.20981,0.604902 -0.90735,0.302452 -1.2098,0.302451 H 177.8891 L 12.145902,-72.383053 11.238549,-72.685504 A 22.326445,22.326445 0 0 1 -7.513419,-99.3012 l 18.449517,-96.78435 2.722059,-15.12255 177.538793,37.20148 h 1.2098"
       style="fill:none;stroke:#000000;stroke-width:1.1"
       id="path1048" />
    <path
       d="m 398.98085,-341.26207 a 12.678169,12.678169 0 0 1 -14.8201,8.46862 L 258.03864,-362.7361 a 15.126412,15.126412 0 0 1 -11.79559,-17.23971 l 29.0353,-216.55499 0.30245,-1.51225 a 15.547428,15.547428 0 0 1 17.54217,-13.0054 l 123.40004,20.26422 a 20.989215,20.989215 0 0 1 17.54217,24.49854 l -19.35687,123.7025 -15.12256,99.20396 z"
       style="fill:none;stroke:#000000;stroke-width:1.1"
       id="path1050" />
    <path
       d="m -133.93798,-69.056091 -54.13874,356.287391 6.35147,9.37598 79.54464,13.30785 2.419607,-0.6049 2.419609,-2.41961 v -0.6049 l 67.446594,-349.331017 0.302451,-3.629413 v -3.629413 l -0.907353,-3.629413 -1.209805,-3.326963 -2.117157,-3.02451 -2.117158,-3.024511 -2.72206,-2.419609 -3.024511,-1.814707 -3.629413,-1.512255 -3.326962,-0.907353 -2.117157,-0.302452 -66.841695,-11.19069 a 14.054486,14.054486 0 0 0 -16.33236,12.400495 z"
       style="fill:none;stroke:#000000;stroke-width:1.1"
       id="path1052" />
    <path
       d="m -102.18061,331.38916 -45.97257,238.33146 -4.53676,24.80099 -6.95638,-1.20981 -0.6049,4.23432 -70.16865,-12.09804 -4.83922,-0.60491 41.73825,-270.39128 9.98089,-3.02451 78.03238,13.30785 z"
       style="fill:none;stroke:#000000;stroke-width:1.1"
       id="path1054" />
    <path
       d="m 812.4315,443.90096 -6.35148,30.54756 -183.28536,-35.99168 14.2152,-77.12503 0.90735,-4.53676 24.49854,-10.58579 163.62604,26.91815 -6.65392,33.87452 z"
       style="fill:none;stroke:#000000;stroke-width:1.1"
       id="path1056" />
    <path
       d="m 474.59362,414.86566 87.40837,14.51765 0.6049,-3.62941 36.29413,6.04902 13.0054,2.11716 v -0.60491 l 13.91275,-74.10051 0.90735,-4.53677 -22.38138,-18.14707 -112.5118,-19.65932 -1.51226,9.98089 z"
       style="fill:none;stroke:#000000;stroke-width:1.1"
       id="path1058" />
    <path
       d="m 776.74227,-614.37541 0.90735,-3.32696 18.75197,-92.55004 65.02698,11.19069 -18.14706,96.17945 z"
       style="fill:none;stroke:#000000;stroke-width:1.1"
       id="path1060" />
    <path
       d="m 853.26239,-794.93871 4.83922,-32.05982 18.14707,-94.06229 13.61029,-69.8662 0.90736,-3.02452 1.2098,-3.02451 1.81471,-2.72206 2.11716,-2.41959 2.41961,-1.8147 2.72206,-1.8147 3.02451,-1.2098 h 0.90735 l 45.06521,8.16615 235.60936,41.73825 -15.425,72.89071 -7.8637,31.75737 -9.376,18.75196 -19.9617,15.42501 -5.4442,27.8255 -3.9318,18.44952 11.4931,3.32696 -5.7466,29.94266 -0.3024,1.8147 -267.66923,-46.57746 a 9.992004,9.992004 0 0 1 -8.16618,-11.49314 z"
       style="fill:none;stroke:#000000;stroke-width:1.1"
       id="path1062" />
    <path
       d="m 822.71483,1762.2853 92.24759,-504.4884 6.04902,-34.4795 4.53676,-5.4441 15.42501,-18.4495 18.14706,-18.752 11.7956,-10.8882 21.17157,-18.1471 16.93726,-13.9127 27.5231,-20.8692 31.4549,-21.7764 53.5338,-37.504 60.4902,-42.3431 68.6564,-47.78729 114.9314,-79.54464 46.88,-33.26962 39.9235,-29.64021 77.4275,-58.67551 41.1333,-31.15246 29.3378,-22.38139 3.6294,-2.4196 15.1226,0.30245 25.4059,-16.93726 66.8416,-44.76277 36.2942,-22.07893 106.4628,-64.11963 54.7436,-32.05981 44.4603,-23.89364 30.2451,-14.8201 38.4113,-17.23972 28.7329,-12.09804 22.0789,-7.86373 16.6348,-11.19069 4.8392,-3.02451 29.9427,-6.35147 14.2152,-2.72206 41.1333,-6.35147 8.1662,-0.90736 9.376,-1.2098 29.6402,-2.11716 27.8255,-1.81471 59.2804,-3.32696 30.85,-2.11716 24.801,0.90736 28.128,3.62941 80.452,13.30785 19.3568,3.32696 3.0245,0.90735 4.8393,1.81471 3.6294,2.11716 3.0245,2.41961 2.1171,3.62941 2.7221,4.53677 0.6049,5.44412 -0.6049,20.26422 -0.9073,39.92354"
       style="fill:none;stroke:#000000;stroke-width:1.1"
       id="path1064" />
    <path
       d="m -985.3378,991.94235 38.71374,-1.81471 40.52844,-2.72206 69.2613,-4.23432 35.99168,-2.41961 26.0108,-2.41961 46.87992,0.60491 34.17697,0.6049 13.6103,-0.30245 84.0814,1.2098 2.72206,0.30245 48.39218,0.60491 63.81718,-0.60491 32.66472,-0.90735 81.05689,0.90735 8.46863,-0.30245 h 42.34315 l 1.20981,0.30245 2.72206,1.51226 2.41961,1.81471 0.30245,0.30245 1.2098,0.90735 1.51226,2.11716 1.51225,2.72206 0.90736,3.02451 0.30245,2.11716 v 1.2098 l -1.20981,4.53679 -1.8147,6.3514"
       style="fill:none;stroke:#000000;stroke-width:1.1"
       id="path1066" />
    <path
       d="m 2215.5021,389.76222 -10.2833,0.6049 -7.2588,0.30245 -8.7711,1.2098 -23.8937,3.32697 -22.6838,3.62941 -33.5721,6.04902 -26.0108,5.44412 -10.2833,2.41961 -18.1471,4.83922 -16.6348,5.74657 -21.7765,8.77108 -30.2451,13.30785 -14.2152,6.65392 -28.1279,14.51765 -22.9863,12.09805 -14.8201,7.86373 -30.2451,16.93726 -30.5476,17.84461 -18.147,10.58579 -51.7192,31.15246 -27.2206,16.33236 -17.5421,10.58579 -13.6103,7.86373 -19.3569,12.09804 -19.9618,13.6103 -13.9127,9.07354 -23.2888,14.8201 -21.1715,14.51765 -19.9618,13.91275 -33.2696,24.19609 -22.6839,17.23971 -32.9671,25.10344 -30.2451,22.68383 -21.4741,16.33236 -17.8446,13.6103 -13.9127,10.58579 -16.0299,12.09804 -40.5285,29.33776 -33.5721,23.28873 -66.2367,45.97257 -13.0054,9.67844 -8.1662,5.74657 -39.6211,26.31324 -6.6539,4.23432 -17.8447,9.98088 -22.6838,11.7956 -19.9618,10.28333 -21.7764,11.49315 -12.0981,6.6539 -14.8201,8.4687 -11.1907,6.3514 -10.2833,6.3515 -23.2887,15.7275 -13.3079,8.771 -9.6784,6.654 -6.654,4.5367 -58.97792,40.226 -20.86913,13.9128 -1.51225,1.5122 -0.30245,0.6049 v 2.4196 l 0.30245,1.2098 0.90735,1.2098 2.41961,1.2099 3.32696,0.6049 3.93187,0.3024 5.14167,0.6049 h 4.83921 l 2.11716,-0.3024 0.90735,-0.3025 2.41961,-1.2098 19.05442,-10.2833 9.67844,-6.0491 8.16615,-5.7465 11.1907,-8.1662 46.5775,-32.0598 8.1662,-5.7466 5.7465,-3.9319 38.7138,-26.9181 18.7519,-13.0054 45.6702,-32.36227 19.9617,-13.91275 114.0241,-78.93974 65.6319,-45.97257 63.2123,-46.57746 52.6264,-39.31864 81.0569,-62.00248 56.2559,-39.92354 20.8692,-14.21521 64.1196,-41.13334 70.7736,-41.73826 68.9588,-41.13334 19.0544,-11.7956 4.8392,-2.72206 16.6349,-9.07353 9.6784,-5.74657 10.2833,-5.74657 19.9618,-10.58579 54.7436,-26.91815 19.0545,-8.16618 11.4931,-4.83921 30.2451,-11.49314 24.4986,-7.25883 15.7274,-3.62941 3.0245,-0.60491 17.8446,-4.23431 21.4741,-3.93187 15.7274,-2.72206 17.5422,-2.72206 10.2833,-1.51225 10.2834,-1.20981 5.4441,-0.6049 20.8691,-1.8147 20.8691,-1.20981 13.9128,-0.6049 26.9181,-2.11716 19.6593,-0.90735 15.4251,-0.90736 23.8936,-1.51225 8.4686,-0.6049 12.0981,-0.30245 11.1907,0.6049 7.8637,0.6049 8.7711,0.90735 15.1225,2.41961 33.5721,5.44412 45.3677,6.95638 19.6593,1.2098 4.2343,-0.30245 6.3515,-1.51225 6.049,-2.41961 2.722,-1.81471 2.4197,-2.41961 1.5122,-2.41961 0.6049,-3.62941 2.4196,-52.62649 -0.3024,-1.20981 -0.6049,-0.90735 -1.2098,-0.30245 h -1.5123 l -1.2098,0.6049 -1.8147,1.20981 -3.6294,2.72206 -1.5123,0.90735 -4.2343,1.81471 -1.8147,0.6049 -2.4196,0.90735 -1.5123,0.6049 -1.5122,0.30246 -2.1172,0.6049 -1.8147,0.30245 -26.6157,5.44412 -4.5367,0.90735 -23.2888,3.93187 -21.474,3.93186 -16.3324,3.32696 -113.1167,21.47403 -15.7274,2.11716 -8.7711,0.30245 -26.9182,1.51225 z"
       style="fill:none;stroke:#000000;stroke-width:1.1"
       id="path1068" />
    <path
       d="m 239.89157,1461.044 11.49315,-94.0623 2.72206,-12.7029 1.51225,-5.7466 0.30245,-1.8147 1.20981,-3.0245 1.51225,-3.0245 1.81471,-3.0246 1.81471,-2.722 1.8147,-1.5123 4.23432,-2.4196 5.14167,-3.0245 3.02451,-1.2098 6.65392,-0.9073 4.23432,-0.6049 5.14167,-0.9074 8.77108,-1.5123 9.98088,-2.4196 12.4005,-3.0245 9.67843,-2.722 7.25883,-2.4196 4.23431,-1.8148 11.1907,-4.8392 14.51765,-7.5612 13.6103,-8.1662 13.30784,-9.376 8.46864,-7.2588 14.2152,-13.0054 11.79559,-13.6103 11.19069,-13.6103 10.28334,-16.0299 8.46863,-15.1226 9.67843,-20.5667 6.04902,-15.7274 5.44412,-16.3324 1.20981,-4.2343 0.6049,-0.9074 0.90735,-1.5122 1.20981,-3.327 0.6049,-0.6049 0.90735,-0.3024 0.30246,-0.9074 0.90735,-1.2098 1.51225,-2.722 0.90736,-1.2098 0.90735,-1.8148 0.90735,-0.9073 1.81471,-1.5123 2.11716,-1.2098 0.30245,-0.3024 2.72206,-1.5123 2.72206,-1.2098 3.93186,-1.2098 3.32697,-0.6049 3.02451,-0.3024 h 6.95637 l 5.74657,0.6049 9.07354,1.2098 91.64268,16.9372 6.65392,1.2098 57.46571,9.9809 21.47402,3.327 81.35935,14.8201 70.77356,12.098 7.56127,1.8147 2.72206,1.2098 3.02451,1.8147 3.32697,2.1172 1.8147,2.1172 2.41961,2.722 1.20981,2.4196 1.51225,3.9319 0.6049,3.9319 v 2.722 l -0.30245,3.6294 -0.30245,3.327 -19.35687,103.7407 -7.25883,41.1334 -13.61029,74.4029 -58.37307,323.3203"
       style="fill:none;stroke:#000000;stroke-width:1.1"
       id="path1070" />
    <path
       d="m 1058.3242,114.53172 -36.899,-6.04902 -1.2098,6.65392 -113.72162,546.22668 33.26963,6.65392 0.30245,-1.51225 110.39464,-514.46931 z"
       style="fill:none;stroke:#000000;stroke-width:1.1"
       id="path1072" />
    <path
       d="m 22.429239,1039.4272 9.375984,1.8147 0.907353,0.6049 0.907354,0.9073 0.302451,1.2098 0.604902,0.9074 1.209804,3.3269 v 9.0736 l -0.907353,28.1279 -0.604902,12.703 v 4.8392 l 0.604902,9.9809 0.907353,12.098 0.907354,7.8638 0.907353,6.6539 0.907353,4.8392 2.117158,9.6784 1.512255,5.7466 2.72206,9.6784 2.72206,6.654 2.419609,6.9563 2.117157,4.8393 3.326962,6.9563 3.629413,7.8638 3.629414,6.9563 6.653924,11.4932 6.049021,9.376 4.234316,5.7465 5.746571,7.2589 6.351473,7.2588 9.67844,10.2833 6.65392,6.3515 7.25882,6.3515 13.0054,10.2833 5.74657,4.2343 10.58579,6.6539 8.77108,5.1417 10.88824,5.1417 13.6103,6.049 9.67844,4.2343 8.46863,2.7221 0.6049,0.3024 0.6049,2.1172 0.90735,0.6049 2.11716,1.5122 1.51226,1.8147 1.51225,2.1172 1.20981,2.1172 1.2098,3.0245 v 6.3514 l -0.90735,5.4442 -0.6049,3.3269 -1.20981,7.2589 -9.07353,70.1686 -0.90735,15.7275 -1.51226,9.3759 -0.6049,4.2344"
       style="fill:none;stroke:#000000;stroke-width:1.1"
       id="path1074" />
    <path
       d="m -987.15251,992.2448 1.51225,-0.30245"
       style="fill:none;stroke:#000000;stroke-width:1.1"
       id="path1076" />
    <path
       d="m 1016.2835,894.55309 -43.85538,30.24511 -1.8147,3.62941 -27.52305,142.15199 -4.53677,22.3814 119.4682,-75.6128 58.9779,-34.47939 45.3677,-29.0353 9.376,-4.53677 10.8882,-6.65392 9.0736,-5.44412 11.1907,-6.95638 8.1661,-5.44412 52.3241,-38.71374 20.5667,-14.2152 25.4058,-16.93726 19.0545,-13.6103 39.0162,-27.52305 12.4004,-8.16618 116.4437,-88.01327 32.3623,-25.10344 65.3294,-48.08972 101.3211,-67.74905 117.956,-67.74904 3.3269,-2.11716 21.4741,-12.40049 28.1279,-16.63481 35.9917,-20.26423 39.3186,-20.26422 31.1525,-15.42501 30.5476,-13.00539 16.9372,-6.95638 13.6103,-5.14167 4.2343,-1.51225 17.2397,-5.14167 28.7329,-7.25883 39.6211,-6.65392 40.8309,-7.25883 31.1524,-4.83922 24.1961,-2.72206 h 3.327 l 30.2451,0.60491 15.425,-1.51226 51.7191,-8.46863 150.6207,-28.4304 8.4686,-1.81471 10.5858,-1.81471 3.6294,-0.90735 2.4196,-1.2098 2.4196,-1.51226 4.2344,-3.02451 2.1171,-2.41961 4.5368,-7.25882 0.9073,-1.20981 0.9074,-3.93186 1.2098,-4.83922 0.9073,-47.48482 -0.3024,-5.74657 -1.2098,-3.93187 -0.9074,-2.72206 -1.2098,-1.51225 -9.376,-10.58579 -16.0299,-16.33236 V 191.9592"
       style="fill:none;stroke:#000000;stroke-width:1.1"
       id="path1078" />
    <path
       d="m 2570.5797,-569.3102 0.3025,-0.30245 h 2.1171 l 0.6049,0.30245 h 0.3025 l 0.6049,0.6049 0.6049,0.30245 0.3024,0.60491 0.9074,1.8147 v 0.60491 l -0.3025,1.2098 -1.8147,12.70294 -2.1171,15.12256 -0.3025,3.02451 -0.3024,1.51226 -0.6049,0.6049 h -0.9074 l -0.3025,0.30245 -0.6049,-0.30245 h -0.9073 l -0.3025,-0.30245 h -0.3024 l -0.3025,-0.6049 v -0.90736 l 0.6049,-30.85001 v -3.02451 l 0.6049,-1.20981 0.6049,-0.30245 0.9074,-0.6049 z"
       style="fill:none;stroke:#000000;stroke-width:1.1"
       id="path1080" />
    <path
       d="m 2590.5415,-1130.9619 1.2098,0.6049 0.9073,1.2098 0.6049,0.6049 -0.3024,1.2098 v 4.8392 l -0.9074,34.4795 -1.2098,60.1877 -2.1171,78.63733 -2.1172,97.38925 -1.5122,80.45199 -0.9074,36.29413 -0.9074,32.05982 -1.2098,46.27501 -13.0054,-0.30245 0.6049,-16.0299 2.4197,-101.92602 0.9073,-95.57455 0.6049,-22.38138 1.5123,-65.63189 2.722,-51.71914 0.6049,-14.2152 1.5123,-26.9181 1.8147,-17.5422 4.5368,-51.1142 0.6049,-5.4442 0.3024,-2.4196 0.6049,-1.2098 v -0.3024 l 0.3025,-0.6049 0.6049,-0.3025 0.3024,-0.6049 z"
       style="fill:none;stroke:#000000;stroke-width:1.1"
       id="path1082" />
    <path
       d="m -739.14261,1.112563 h 0.30245 l -8.16618,-10.88824 -12.70295,-10.283337 -11.49314,-5.141669 -6.65392,-1.814706 -6.95638,-1.512256 -27.2206,-7.258826 -17.23971,-2.72206 h -22.07893 l -11.19069,-0.302451 -32.05982,-0.302451 -6.65392,-0.302451 -4.23432,-1.209804 -5.74657,-3.326962 -3.62941,-2.72206 -3.62941,-6.653924 -0.90736,-6.653924 v -13.912751 l 0.90736,-3.931864 3.02451,-6.653924 3.02451,-4.839217 3.32696,-2.72206 3.32696,-1.209805 5.74657,-0.907353 h 5.74658 l 74.40296,15.425006 53.8363,11.493141 20.56667,6.956376 8.16618,4.536766 9.07354,7.258826 9.37598,8.16618 6.35147,6.351473 7.25883,9.073532 4.83922,9.980887 4.23431,9.980886 2.11716,6.956375 1.2098,7.561277 3.32697,109.789747 3.32696,126.72701 5.44412,235.0045 -0.30245,1.2098 -0.90736,1.51226 -0.90735,1.2098 -1.81471,1.51226 -1.51225,0.90735 h -1.51226 l -13.30785,0.30245 0.90736,75.31032 1.8147,50.81179 1.20981,55.0461 0.6049,42.34315 -0.6049,22.07893 h 5.74657 l 5.44412,-0.30245 2.11716,0.6049 3.02451,1.51226 3.62941,2.11715 1.2098,0.90736 1.20981,1.51225 0.90735,25.70835 1.51226,53.83629 1.2098,63.51473 0.30245,19.35687 -5.74657,1.2098 -0.30245,15.42501 -0.30245,3.02451 -0.6049,1.81471 -1.20981,2.41961 -0.90735,1.51225 -0.6049,0.90735 -1.20981,0.30246 -24.49853,0.30245"
       style="fill:none;stroke:#000000;stroke-width:1.1"
       id="path1084" />
    <path
       d="m -1154.7104,-2572.1413 97.6917,13.3078 h 3.9319 l 3.6294,-0.3024 3.6294,-1.2098 3.6294,-1.5123 3.0245,-2.4196 2.7221,-2.7221 2.1171,-3.0245 1.8147,-3.6294 0.9074,-3.6294 0.6049,-3.6294 5.1416,-228.3506 v -3.6294 l -0.9073,-3.9319 -1.5123,-3.3269 -1.8147,-3.327 -2.4196,-2.7221 -3.0245,-2.4196 -3.0245,-2.1171 -3.6294,-1.2098 -3.6294,-0.9074 -3.9319,-0.3024 -105.253,3.0245"
       style="fill:none;stroke:#000000;stroke-width:1.1"
       id="path1086" />
    <path
       d="m -1160.1545,-2057.0671 129.449,11.1907 2.4196,0.6049 2.1172,0.6049 2.4196,1.2098 1.8147,1.5122 1.8147,1.8147 2.4196,4.2343 0.6049,2.4197 0.3025,2.4196 8.4686,343.282 v 1.8147 l -0.3024,1.8147 -0.6049,1.5122 -0.9074,1.5123 -1.2098,1.5122 -1.5123,1.2098 -1.5122,0.9074 -1.5123,0.6049 -1.8147,0.6049 h -4.5367 l -124.3074,1.2098"
       style="fill:none;stroke:#000000;stroke-width:1.1"
       id="path1088" />
    <path
       d="m 949.74429,681.92997 -2.11716,10.58579 -16.0299,80.75444 -93.15494,-15.12255 -2.41961,-0.6049 16.93726,-94.06229 z"
       style="fill:none;stroke:#000000;stroke-width:1.1"
       id="path1090" />
    <path
       d="m 581.35886,722.76087 0.90735,3.32696 v 1.20981 l 163.62604,28.12795 5.44412,1.2098 6.95638,1.20981 7.25883,-46.57747 -4.83922,-4.23432 21.17157,-111.9069 20.56668,-105.25298 -180.26085,-33.26962 -48.69463,256.17607 1.81471,1.51226 2.41961,2.41961 2.11715,2.72206 z"
       style="fill:none;stroke:#000000;stroke-width:1.1"
       id="path1092" />
    <path
       d="m 607.6721,456.30146 -2.4196,-2.41961 -45.97257,-8.46863 1.51226,-9.67844 -0.90736,-0.30245 -86.50101,-14.51765 -36.89903,206.27165 -13.91275,72.58826 121.58533,20.86912 0.60491,-1.2098 2.11715,-2.72206 2.41961,-2.41961 2.72206,-2.11716 3.32697,-1.51225 3.32696,-0.90736 h 1.51225 v -0.30245 l 0.60491,-3.02451 z"
       style="fill:none;stroke:#000000;stroke-width:1.1"
       id="path1094" />
    <path
       d="m 131.61408,379.78133 -41.435796,244.68294 -3.629413,0.90735 -3.629413,1.2098 -3.326962,2.11716 -3.024511,2.41961 -2.419609,3.02451 -1.814706,3.32696 h -0.604903 l -117.955926,-20.26422 45.670115,-274.02069 0.302451,-0.30245 120.375533,20.86912 2.11716,0.30245 a 14.173218,14.173218 0 0 1 9.37598,15.72746 z"
       style="fill:none;stroke:#000000;stroke-width:1.1"
       id="path1096" />
    <path
       d="m 398.37595,302.35385 81.96424,13.0054 -8.77108,50.50933 -8.46863,47.18237 -73.79807,-12.09804 -6.65392,-1.20981 z"
       style="fill:none;stroke:#000000;stroke-width:1.1"
       id="path1098" />
    <path
       d="m 480.64265,27.728259 181.1682,27.8255 14.51765,20.869126 -40.83089,231.072635 -10.88824,13.0054 -1.20981,6.65392 h -0.30245 l -110.39465,-18.44951 -82.56915,-13.6103 -29.94266,-5.14167 39.0162,-240.146171 33.57207,-23.288735 z"
       style="fill:none;stroke:#000000;stroke-width:1.1"
       id="path1100" />
    <path
       d="m 968.49626,673.76379 0.30245,-0.90735 28.12795,-133.07848 169.07014,22.68383 10.5858,15.12256 -25.1034,131.26377 z"
       style="fill:none;stroke:#000000;stroke-width:1.1"
       id="path1102" />
    <path
       d="m -130.61101,558.83238 -7.25883,38.10884 1.81471,0.6049 -0.90736,4.23431 84.98876,14.51766 45.367664,-274.32315 v -0.30245 l -75.007871,-12.70294 -0.907353,-0.30245 -6.351473,5.44412 -24.196087,127.33191 z"
       style="fill:none;stroke:#000000;stroke-width:1.1"
       id="path1104" />
    <path
       d="m -147.54827,-69.963444 -0.30246,1.512255 -53.23139,353.867779 -9.07353,6.65392 -192.9638,-38.10883 v -0.30245 l 54.4412,-372.01485 118.86328,19.659322 67.14414,10.585788 a 16.743544,16.743544 0 0 1 15.12256,18.147066 z"
       style="fill:none;stroke:#000000;stroke-width:1.1"
       id="path1106" />
    <path
       d="m 1018.4007,-134.08308 35.3868,-21.77647 391.6741,94.364736 -1.5122,4.536767 v 2.722059 l 30.5475,8.16618 v 0.302451 l 0.3025,6.956375 5.4441,22.986283 v 7.561278 l -28.4304,164.533391 -8.4686,4.83922 -84.0814,-13.6103 -378.0639,-62.304923 -6.04902,-12.400495 39.92352,-192.056442 z"
       style="fill:none;stroke:#000000;stroke-width:1.1"
       id="path1108" />
    <path
       d="m 1137.8689,-198.80761 83.7789,19.65932 236.2143,55.95345 30.85,7.25883 -10.2833,46.577468 -6.9564,-1.512256 0.6049,-3.629413 -21.7764,-4.839217 -2.4197,6.049022 -75.0078,-18.147066 -78.3349,-18.751968 -167.2554,-40.22599 z"
       style="fill:none;stroke:#000000;stroke-width:1.1"
       id="path1110" />
    <path
       d="m 188.77734,-219.07183 -0.30245,0.30245 -166.650553,-35.38678 20.566674,-108.88239 3.326962,-16.33236 0.302451,-1.51226 2.117158,-6.65392 12.702946,-8.16618 7.863728,1.8147 141.547114,35.08433 a 16.389144,16.389144 0 0 1 12.40049,18.75197 l -13.30784,90.73533 -2.11716,13.6103 -18.75197,16.93726"
       style="fill:none;stroke:#000000;stroke-width:1.1"
       id="path1112" />
    <path
       d="m -67.096285,-425.64593 h 3.326962 l 3.024511,0.30245 83.476502,19.96177 4.536767,1.20981 8.46863,12.70294 -0.604902,4.53677 v 0.90735 l -24.196087,130.05397 -89.525524,-16.63481 3.326962,-24.80099 -25.103436,-4.23431 16.332354,-107.97504 0.604902,-3.02451 1.209805,-3.02451 1.209804,-1.81471 0.604902,-0.90735 2.117158,-2.11716 2.419609,-2.11716 2.72206,-1.51225 3.024511,-1.20981 z"
       style="fill:none;stroke:#000000;stroke-width:1.1"
       id="path1114" />
    <path
       d="m -104.60022,-436.53417 -184.19272,-45.67012 a 13.780586,13.780586 0 0 0 -16.0299,10.28334 l -19.05442,138.82505 40.8309,7.86373 151.22554,31.15247 1.81471,-13.30785 18.44951,3.32696 17.844619,-116.14122 v -0.30245 a 14.681125,14.681125 0 0 0 -10.888239,-16.02991 z"
       style="fill:none;stroke:#000000;stroke-width:1.1"
       id="path1116" />
    <path
       d="m -601.22492,-557.21216 268.87903,64.42209 3.02451,0.90735 2.72206,1.20981 2.72206,1.51225 2.11716,2.11716 2.11715,2.41961 1.20981,2.72206 1.2098,3.02451 0.30245,3.02451 -1.51225,10.88824 -20.86913,128.84416 -274.62559,-55.651 -3.32696,-152.43535 a 13.006939,13.006939 0 0 1 16.0299,-13.0054 z"
       style="fill:none;stroke:#000000;stroke-width:1.1"
       id="path1118" />
    <path
       d="m -607.57639,-1019.9623 2.72206,0.6049 68.95885,12.7029 92.24758,16.02993 -41.13335,225.93096 -0.90735,2.41961 -3.02451,4.23432 -4.23431,3.02451 -2.41961,0.90735 -2.41961,0.6049 -111.90691,-17.54216 -3.02451,-0.90735 -2.72206,-0.90736 -2.72206,-1.8147 -2.11715,-1.81471 -1.81471,-2.41961 -3.32696,-223.81379 a 16.961994,16.961994 0 0 1 17.84461,-17.2397 z"
       style="fill:none;stroke:#000000;stroke-width:1.1"
       id="path1120" />
    <path
       d="m 1517.7474,-231.77478 10.5858,-33.57207 24.1961,-103.74073 -15.7274,-3.32696 -0.6049,-2.72206 -21.4741,-3.93186 3.6294,-26.6157 -154.25,-26.01079 -59.8853,256.78098 1.2098,0.30245 186.3099,45.36766 8.1661,-35.68923 4.5368,-19.35687 8.7711,-32.05981 z"
       style="fill:none;stroke:#000000;stroke-width:1.1"
       id="path1122" />
    <path
       d="m 1287.8846,-178.84584 62.6074,-253.15156 0.3024,-1.81471 -159.6941,-26.01079 -51.1143,246.19519 z"
       style="fill:none;stroke:#000000;stroke-width:1.1"
       id="path1124" />
    <path
       d="m 772.2055,-670.02641 0.6049,-2.41961 6.65393,-40.8309 -146.08388,-24.80099 -54.13875,-9.37598 h -0.6049 l 2.11716,-13.91275 6.95637,0.90735 235.30695,38.10884 8.16618,-47.18237 -104.64807,-17.84462 -142.75692,-24.80099 -4.53677,26.31325 -7.25882,-0.90736 -28.12796,175.72409 7.56128,1.51225 0.30245,0.60491 16.33236,21.77648 210.50596,34.47942 2.41961,-2.41961 3.62941,-2.41961 3.62942,-1.8147 3.93186,-0.90736 3.93187,-0.30245 5.44412,-31.75736 -1.51226,-0.30245 -168.46526,-28.43041 -61.09512,-10.28333 -10.28334,-1.81471 2.72206,-18.14707 200.52508,34.78188 6.04902,-35.68923 0.6049,-3.32696 -197.19811,-33.57207 -3.62941,-0.60491 1.8147,-12.09804 6.95638,1.20981 z"
       style="fill:none;stroke:#000000;stroke-width:1.1"
       id="path1126" />
    <path
       d="m 237.16951,-622.23914 -140.034851,-21.77648 -41.133349,211.11086 -0.302451,4.23432 -0.907353,6.95637 9.980886,14.82011 149.713288,33.87452 a 11.791926,11.791926 0 0 0 14.82011,-10.28334 l 27.52305,-212.92557 a 23.393525,23.393525 0 0 0 -19.65933,-26.01079 z"
       style="fill:none;stroke:#000000;stroke-width:1.1"
       id="path1128" />
    <path
       d="m -474.19546,-762.274 41.73826,-226.53587 108.88239,18.75197 76.82258,13.30785 v 0.30245 l -32.66472,227.74567 -16.93726,7.56128 -167.25546,-26.31324 a 12.950515,12.950515 0 0 1 -10.58579,-14.82011 z"
       style="fill:none;stroke:#000000;stroke-width:1.1"
       id="path1130" />
    <path
       d="m 1549.8073,-512.14694 7.2588,1.2098 -7.2588,-1.2098 -27.5231,-5.14167 -108.5799,-18.75197 -47.1824,-8.16618 -143.0594,-22.07893 -56.2559,-9.07353 1.8147,-11.19069 13.6103,2.11716 13.3079,2.4196 -0.3025,3.32697 73.1932,12.09804 100.4138,16.33236 v 1.2098 l 88.6181,13.6103 30.5476,5.14167 -0.3025,3.32696 76.2177,12.09805 1.5123,0.30245 -0.3025,1.81471 3.6294,0.90735 6.3515,0.90735 2.7221,-1.8147 10.5858,-59.28042 11.4931,-62.60738 -82.5692,-14.2152 -91.0377,-16.33236 -0.9074,4.23432 -12.7029,78.33483 -10.5858,-1.51225 14.2152,-82.8716 -50.8118,-9.07354 -204.4569,-35.68923 -1.8147,-0.30245 -16.6349,13.91276 -13.3078,61.09511 -28.7329,130.65888 5.4442,6.04902 51.4166,8.77108 301.5438,50.50933 0.3024,-3.32696 50.5094,8.46863 2.4196,-13.30785 52.9289,8.77109 6.049,-36.59659 -7.2588,-1.2098 -0.6049,2.41961 -11.7956,-1.81471 -2.1171,10.28334 -389.557,-65.02699 1.5122,-8.46863 378.0639,60.49022 1.2098,-8.16618 31.4549,5.14167 3.0245,-18.75197 -5.1417,-3.93186 -12.098,-1.81471 -1.2098,-3.02451"
       style="fill:none;stroke:#000000;stroke-width:1.1"
       id="path1132" />
    <path
       d="m 938.85605,78.237591 24.80099,-7.258826 1.51226,-6.351473 6.35147,-26.918147 7.25883,-33.572072 -4.83922,-10.585788 -40.8309,-8.771082 -27.8255,-34.479424 -176.02654,-36.596582 -10.28333,8.771081 -17.23972,94.667192 17.23972,25.103441 5.74657,0.907354 z"
       style="fill:none;stroke:#000000;stroke-width:1.1"
       id="path1134" />
    <path
       d="M 666.04517,30.147867 660.9035,29.240514 478.82794,-1.911948 481.55,-20.361465 l -8.16618,-11.190691 -21.77648,-3.629413 12.09804,-78.939731 0.30246,-0.60491 23.89363,4.53677 1.81471,-10.28334 77.72993,13.91275 1.81471,-11.49314 126.42455,25.103442 8.16618,12.400495 -17.84461,95.272095 z"
       style="fill:none;stroke:#000000;stroke-width:1.1"
       id="path1136" />
    <path
       d="m 419.84998,-311.01697 38.41128,9.07354 2.11716,0.6049 -2.41961,12.40049 10.88824,16.63481 8.77108,13.30785 -13.91275,86.19856 -20.86912,-3.62941 -1.51226,8.77108 h -0.90735 l -55.0461,-9.98088 15.42501,-98.90151 4.23431,-28.12795 z"
       style="fill:none;stroke:#000000;stroke-width:1.1"
       id="path1138" />
    <path
       d="m 1223.1601,541.29021 -9.6785,-15.12255 68.9589,-367.78053 1.2098,-7.56128 75.3103,11.49314 80.1496,12.4005 -69.2613,385.32269 -32.0599,-5.44412 -0.6049,4.53677 z"
       style="fill:none;stroke:#000000;stroke-width:1.1"
       id="path1140" />
    <path
       d="M 171.23518,-33.064411 10.331195,-60.285009 a 25.317597,25.317597 0 0 0 -29.035305,20.566674 l -26.313245,135.800541 -16.937261,92.550034 -0.604902,3.93186 0.302451,3.93187 0.907353,3.93186 1.512256,3.62942 1.814706,3.32696 2.72206,3.02451 3.024511,2.72206 3.326962,2.11716 3.629413,1.51225 3.629413,0.90735 161.508883,25.70835 3.32696,0.30245 h 7.56128 l 11.79559,-7.56128 8.46863,-7.86373 3.32697,-6.35147 27.8255,-239.541265 a 14.706986,14.706986 0 0 0 -10.88824,-15.425006 z"
       style="fill:none;stroke:#000000;stroke-width:1.1"
       id="path1142" />
    <path
       d="m 769.48344,-222.09634 -28.4304,16.93726 -17.23972,94.36474 7.86373,13.005395 176.02654,37.201484 38.41129,-20.264223 42.0407,7.561278 9.07353,-6.653925 12.40049,-56.255899 -19.65931,-30.85001 -2.72206,-2.41961 -218.06724,-51.11424"
       style="fill:none;stroke:#000000;stroke-width:1.1"
       id="path1144" />
    <path
       d="m -258.54783,761.77706 -18.75196,104.64808 3.02451,4.83922 68.35394,10.88824 1.51226,-9.37599 22.07893,-114.93141 5.74657,-29.94266 4.83922,-19.35687 1.2098,-4.53677 7.86373,1.20981 5.14167,-24.80099 1.2098,-5.74657 -2.72206,-3.62942 -2.11716,-3.32696 -1.2098,-4.23431 -0.6049,-4.83922 4.53676,-35.08433 1.51226,-8.46863 -6.35147,-1.2098 0.90735,-4.23432 -0.6049,-0.30245 -7.25883,-1.2098 -55.34855,-9.98089 -3.02451,-0.6049 -0.90735,3.32696 -13.91275,76.21768 z"
       style="fill:none;stroke:#000000;stroke-width:1.1"
       id="path1146" />
    <path
       d="m -100.06345,898.18251 46.275014,-269.48393 -85.291204,-14.8201 -0.60491,4.23431 -4.83921,-0.90735 v 0.30245 l -1.51226,9.07353 -0.6049,-0.30245 h -0.6049 l -0.60491,0.30245 h -0.6049 l -0.6049,0.30245 -0.30245,0.60491 -0.6049,0.30245 -0.30245,0.6049 v 0.6049 l -0.30246,0.30245 v 0.60491 l -2.11715,17.84461 -1.81471,13.6103 0.6049,3.62941 2.72206,5.14167 0.90736,2.72206 -26.6157,135.19564 -9.98089,58.97796 -3.02451,17.54217 32.05982,5.14167 57.46571,9.37598 z"
       style="fill:none;stroke:#000000;stroke-width:1.1"
       id="path1148" />
    <path
       d="m -31.407056,-679.09995 117.955927,21.77648 46.879919,-233.79469 -125.517203,-21.77648 -17.542164,-3.02451 -2.117157,14.2152 -30.547561,208.08635 2.72206,1.51226 2.419609,2.11715 2.117157,2.41961 1.814707,2.41961 1.209804,3.02451 z"
       style="fill:none;stroke:#000000;stroke-width:1.1"
       id="path1150" />
    <path
       d="m -311.17432,-512.14694 1.51226,-9.98089 25.70834,-173.90938 -10.88824,-13.30785 -71.98336,-11.79559 -116.14122,-18.14706 -75.00787,-12.09805 -52.92894,-9.07353 -1.51226,-0.30245 h -3.02451 l -1.2098,0.6049 -1.51226,0.6049 -1.2098,0.90736 -0.90735,0.90735 -0.90736,1.2098 -0.6049,1.51226 3.32696,164.23094 0.30245,16.02991 288.8408,70.16865 a 13.901239,13.901239 0 0 0 18.14706,-7.56127 z"
       style="fill:none;stroke:#000000;stroke-width:1.1"
       id="path1152" />
    <path
       d="m -128.49386,-108.07228 17.84462,-119.46818 24.498537,4.23431 0.907353,-6.65392 87.710817,17.54216 -20.264223,105.55543 -1.209805,4.83922 -2.419608,4.839217 -3.024511,4.234315 -3.629413,3.629414 -4.234316,2.722059 -4.536766,2.419609 -5.141669,1.209805 -5.141668,0.604902 -5.141669,-0.302451 -64.724539,-10.585789 -2.4196,-0.302451 -2.41961,-1.814706 -2.11716,-1.814707 -1.81471,-2.419609 -1.51225,-2.722058 -0.90735,-3.02451 z"
       style="fill:none;stroke:#000000;stroke-width:1.1"
       id="path1154" />
    <path
       d="m 839.95455,374.94211 43.2505,7.86373 2.11716,1.51226 1.81471,1.51225 1.51225,2.11716 1.2098,2.41961 0.90736,2.11716 0.6049,2.72206 0.30245,2.41961 -10.28334,46.57746 -9.67843,43.55296 -33.87452,-4.23431 -18.75197,-3.62942 6.65392,-37.20148 z"
       style="fill:none;stroke:#000000;stroke-width:1.1"
       id="path1156" />
    <path
       d="m 869.2923,788.09031 11.49314,-17.23972 27.8255,4.23432 -50.50933,249.52219 -46.57747,-8.1662 -3.02451,14.2152 -26.31324,10.8882 -6.04903,0.3025 -6.35147,-1.2098 4.53677,-26.6157 7.56127,1.5122 49.29953,-233.49221 z"
       style="fill:none;stroke:#000000;stroke-width:1.1"
       id="path1158" />
    <path
       d="m 543.25002,736.67362 1.51226,3.02451 2.11715,3.02451 2.41961,2.41961 2.72206,2.11716 3.62942,1.2098 0.6049,0.30245 -34.78188,189.03194 5.74657,0.90735 34.78188,-189.03193 0.30245,-0.30245 1.2098,0.30245 3.02452,0.30245 2.4196,-0.6049 1.81471,-0.90736 3.02451,-1.8147 2.72206,-1.81471 2.41961,-2.72206 1.51226,-1.8147 0.90735,-1.51226 213.53047,37.50393 7.86373,1.20981 -49.29953,232.28248 9.07353,1.8147 -5.44412,26.9181 -8.77108,-1.5122 -98.59905,-17.2398 -49.60198,-9.0735 -195.08096,-33.87451 0.30245,-2.11716 -34.78187,-6.35147 -3.32696,-5.14167 44.76276,-254.05892 29.64021,5.44412 100.71621,17.54216 v 0.90736 z"
       style="fill:none;stroke:#000000;stroke-width:1.1"
       id="path1160" />
    <path
       d="m 133.42879,348.62887 -0.90735,0.6049 -1.20981,0.30245 h -2.11716 l -206.574092,-35.38678 -2.419608,-0.30245 -5.746571,-4.83921 0.604902,-2.72206 12.400495,-61.39758 1.814706,-3.62941 2.419609,-3.02451 2.72206,-3.02451 3.326962,-2.11716 3.629413,-1.8147 3.629413,-1.51226 3.931864,-0.6049 h 4.234316 l 140.034856,22.07893 28.732855,4.23431 4.83922,1.81471 4.53676,2.72206 6.65393,5.44412 3.62941,11.49314 2.41961,13.6103 -6.95638,52.92894 -0.30245,1.2098 -0.30245,0.90736 -1.2098,1.8147 -0.90736,0.90736 z"
       style="fill:none;stroke:#000000;stroke-width:1.1"
       id="path1162" />
    <path
       d="m 646.6883,309.61268 1.8147,-9.67844 40.8309,-221.696649 27.2206,-18.449516 2.41961,0.302451 217.46233,34.781875 15.42501,18.449519 -51.71914,244.98538 -0.90735,2.72206 -1.2098,2.41961 -1.81471,2.11716 -2.11716,2.11716 -2.11716,1.51225 -2.72206,1.20981 -2.72206,0.90735 -221.9991,-37.20148 z"
       style="fill:none;stroke:#000000;stroke-width:1.1"
       id="path1164" />
    <path
       d="m 2029.7971,-582.01315 52.0216,2.72206 6.9564,1.51226 h 7.2588 l 1.2098,1.51226 0.6049,0.30245 306.0805,-2.41961 2.4197,0.90735 2.1171,1.20981 2.1172,1.8147 1.5122,1.81471 1.5123,2.11716 0.9073,2.4196 0.6049,2.41961 v 2.72206 l 0.3025,75.91523 -1.5123,3.32696 -2.722,2.41961 -8.4687,5.74657 -264.3422,3.62941 -14.2152,-5.14167 -15.425,-7.56127 -45.6701,-25.10344 -10.2834,-8.16618 -10.8882,-13.91275 -5.4441,-11.7956 -5.4441,-16.33236 -1.5123,-12.09804 h -4.8392 v -5.14167 a 4.472523,4.472523 0 0 1 5.1416,-4.83922 z"
       style="fill:none;stroke:#000000;stroke-width:1.1"
       id="path1166" />
    <path
       d="m 1077.0762,-1703.8043 -18.752,100.1114 -337.83784,-63.2123 51.11424,-256.781 348.7261,65.6319 1.2098,0.3024 -17.8446,103.4383 -16.9373,-3.3269 -3.6294,21.7764 z"
       style="fill:none;stroke:#000000;stroke-width:1.1"
       id="path1168" />
    <path
       d="m 1285.7675,-2611.7624 47.4848,-248.3124 -47.4848,248.3124 224.7211,52.6265"
       style="fill:none;stroke:#000000;stroke-width:1.1"
       id="path1170" />
    <path
       d="m -302.40323,866.42514 16.93726,3.02451 -0.90736,6.65393 417.98741,66.84169 0.30245,-2.41961 26.91815,3.02451 123.7025,21.47403 528.38206,90.1304 5.74657,-27.523 46.27502,8.1662 3.93186,-23.2888 47.48482,-235.60938 32.66472,5.44412 9.37599,-50.20689 6.04902,0.90736 -24.80099,126.42456 20.56667,33.26962 -39.31864,194.17361 -4.23431,21.1716 -3.93187,2.4196 -14.51765,9.6784 -1.20981,0.9074 -0.90735,0.6049 h -0.90735 l -0.6049,0.3024 -0.90736,0.3025 -1.51225,-0.3025 h -1.81471 l -3.32696,-0.6049 -3.02451,-0.6049 -179.65595,-32.0598 -244.98539,-44.1579 -36.29413,25.1035 -32.96717,-5.7466 -268.27412,-46.5775 -15.72746,-29.64017 -116.141216,-21.77648 -287.630984,-36.89903 -21.47403,-0.60491 -65.63189,0.60491 -105.25298,0.90735 -121.28289,2.11716 -6.95637,-0.6049 -5.14167,-1.51226 -5.74657,-3.62941 -4.53677,-5.44412 -2.72206,-5.74657 -2.11716,-4.53677 -1.8147,-5.44412 -0.90736,-4.23431 -0.30245,-2.41961 -0.30245,-5.14167 v -4.83922 l 0.30245,-2.11716 -1.2098,-60.49022 -4.53677,-208.08635 -7.86373,-268.57657 -3.32696,-165.44075 v -2.11716 -3.93186 l -0.30245,-6.35147 v -0.30245 l 0.30245,-0.60491 v -0.6049 l 0.30245,-0.30245 2.11716,-1.81471 2.11716,-1.51225 2.41961,-1.20981 2.4196,-0.90735 2.72206,-0.30245 12.09805,-2.41961 1.8147,-0.30245 h 2.11716 l 4.23432,0.6049 3.02451,0.90736 2.41961,1.2098 1.2098,64.72453 7.86373,3.93187 7.56128,299.72903 167.25545,27.52305 203.24714,33.26962 -0.30245,2.11716 -27.82551,155.45986 -19.96177,107.97504 -16.93726,-3.02451"
       style="fill:none;stroke:#000000;stroke-width:1.1"
       id="path1172" />
    <path
       d="m -565.83814,-2320.502 v -0.6049 l 17.23971,-92.2476 18.75197,-15.7275 85.89611,-71.6809 35.99168,6.9564 188.12458,35.6892 26.6157,5.1417 16.02991,21.7765 -43.25051,186.3098 a 11.488559,11.488559 0 0 1 -13.6103,8.7711 l -313.94423,-58.373 a 22.039987,22.039987 0 0 1 -17.84462,-26.0108 z"
       style="fill:none;stroke:#000000;stroke-width:1.1"
       id="path1174" />
    <path
       d="m 261.3656,1143.7728 6.04902,6.3515 -0.90735,9.6784 -7.86373,6.049 -8.46863,-1.5122 -6.04902,-6.9564 0.90735,-9.0735 7.56128,-5.7466 z"
       style="fill:none;stroke:#000000;stroke-width:1.1"
       id="path1176" />
    <path
       d="m 421.66468,1280.1782 -1.8147,1.8147 -1.81471,-1.8147 1.81471,-1.8147 z"
       style="fill:none;stroke:#000000;stroke-width:1.1"
       id="path1178" />
    <path
       d="m 414.70831,1278.666 1.8147,1.8147 -1.51225,1.5122 -1.81471,-1.8147 z"
       style="fill:none;stroke:#000000;stroke-width:1.1"
       id="path1180" />
    <path
       d="m 415.31321,1293.7885 -0.90735,1.2098 -1.81471,-1.5122 0.90735,-1.2098 z"
       style="fill:none;stroke:#000000;stroke-width:1.1"
       id="path1182" />
    <path
       d="m 412.8936,1299.8376 1.81471,1.8147 -1.51226,1.5122 -1.81471,-2.1171 z"
       style="fill:none;stroke:#000000;stroke-width:1.1"
       id="path1184" />
    <path
       d="m 51.464544,1243.2792 -1.814706,3.327 -4.234316,-2.1172 2.117158,-3.6294 z"
       style="fill:none;stroke:#000000;stroke-width:1.1"
       id="path1186" />
    <path
       d="m 49.347386,1201.8434 1.512256,5.4441 -4.536766,1.5123 -1.814707,-5.4441 z"
       style="fill:none;stroke:#000000;stroke-width:1.1"
       id="path1188" />
    <path
       d="m -558.57931,-2272.1099 -3.62941,0.9074 -3.62942,1.2098 -3.02451,1.8147 -3.02451,2.4196 -2.41961,2.7221 -2.11716,3.3269 -1.51225,3.327 -0.90735,3.6294 -56.25591,308.5001 -0.30245,2.1172 0.6049,4.2343 0.90736,1.8147 1.2098,1.8147 1.51226,1.8147 1.8147,1.2098 1.81471,0.9074 2.11716,0.6049 5.74657,1.2098 0.30245,7.5613 2.11716,0.3024 307.89521,58.978 11.79559,-64.4221 7.86373,-44.4603 22.68383,-119.7706 18.14707,-96.1795 5.44412,-28.4304 -307.59276,-56.8608 -3.93187,-0.3025 z"
       style="fill:none;stroke:#000000;stroke-width:1.1"
       id="path1190" />
    <path
       d="m 984.82862,-2948.9954 142.75688,33.2696 -31.7573,164.231 -159.39176,-30.5476 28.73286,-154.5525 a 15.601081,15.601081 0 0 1 19.65932,-12.4005 z"
       style="fill:none;stroke:#000000;stroke-width:1.1"
       id="path1192" />
    <path
       d="m 1427.0121,-2015.0264 2.1172,1.5122 2.4196,1.2098 600.9703,112.2094 3.6294,-2.7221 3.0245,-3.3269 2.7221,-5.1417 -2.7221,5.1417 -3.0245,3.3269 -3.6294,2.7221 -84.0814,-15.7275 27.2206,-149.7133 71.9834,13.6103 -5.7466,140.6398 5.7466,-140.6398 -170.28,-32.0598 -429.783,-81.3593 -15.425,82.8716 -9.9809,52.6265 -0.3025,2.722 0.3025,2.7221 0.6049,2.4196 0.9074,2.4196 1.5122,2.4196 z"
       style="fill:none;stroke:#000000;stroke-width:1.1"
       id="path1194" />
    <path
       d="m -641.45091,-1908.8661 -5.44412,24.1961 -0.6049,2.4196 -0.30245,2.4196 v 2.4196 l 0.6049,2.4196 0.90735,2.4196 1.20981,2.1172 1.51225,1.8147 1.81471,1.8147 298.21678,56.5584 433.412413,82.2667 7.863728,-42.3432 -733.746351,-139.7324 z"
       style="fill:none;stroke:#000000;stroke-width:1.1"
       id="path1196" />
    <path
       d="m 689.3339,-2327.7609 -18.75197,96.7844 -4.83922,3.0245 -114.02406,-21.7765 -0.6049,-0.9073 -3.02451,-4.2343 35.99168,-189.032 123.09759,22.3814 z"
       style="fill:none;stroke:#000000;stroke-width:1.1"
       id="path1198" />
    <path
       d="m 1358.9606,-1829.3215 -0.9073,4.5368 -17.5422,98.2966 -0.6049,2.4196 -1.2098,2.4196 -1.2098,1.8147 -1.5123,2.1172 -2.1171,1.5123 -2.1172,1.2098 -2.1171,0.9073 -2.4196,0.3025 -2.7221,0.3024 -2.4196,-0.3024 -205.0619,-38.1089 v -0.3024 l 23.5912,-127.3319 32.0598,5.7465 178.7486,33.5721 a 8.978053,8.978053 0 0 1 7.5613,10.8882 z"
       style="fill:none;stroke:#000000;stroke-width:1.1"
       id="path1200" />
    <path
       d="m 1508.3715,-2547.3404 -39.3187,208.0864 -227.4432,-42.9481 -2.1172,-0.6049 44.1579,-217.1598 20.2642,4.5367 z"
       style="fill:none;stroke:#000000;stroke-width:1.1"
       id="path1202" />
    <path
       d="m 1209.5498,-2223.1128 27.8255,-147.8986 v -0.6049 l 228.0481,41.7383 1.8147,0.6049 -26.9181,143.6643 -0.3025,1.2098 -0.3024,0.9073 -0.6049,0.9074 -1.5123,1.5122 -1.2098,0.6049 -1.8147,0.6049 h -1.2098 l -1.2098,-0.3024 -221.0918,-42.6456 z"
       style="fill:none;stroke:#000000;stroke-width:1.1"
       id="path1204" />
    <path
       d="m 1225.2772,-2547.0379 9.9809,0.9074 9.9809,-0.3025 9.9809,-1.5123 55.0461,-288.5383 6.6539,-34.7819 -182.6804,-42.948 -30.8501,164.2309 157.8795,29.9427 -1.5122,9.9809 -123.7025,-24.801 -34.177,-6.3515 -4.2343,22.9863 -25.4059,134.5907 6.049,8.4686 z"
       style="fill:none;stroke:#000000;stroke-width:1.1"
       id="path1206" />
    <path
       d="m 128.89202,-2052.2279 -9.07353,-7.5613 -9.07353,-9.9809 -39.016193,-49.2995 -10.585788,-13.6103 -12.098044,-11.7956 -13.91275,-10.2833 -14.820104,-8.1662 -16.029907,-6.049 -236.516754,-43.8554 -6.95638,40.5284 -13.91275,79.8471 -33.26962,167.2554 -8.46863,50.8118 -2.72206,15.1226 396.513386,75.9152 603.087484,112.8143 1.2098,-7.5613 46.57747,-234.0972 0.30245,-2.722 v -2.4196 l -0.6049,-2.7221 -0.90736,-2.4196 -1.51225,-2.1171 -3.62941,-3.6295 -2.41961,-1.2098 -580.1012,-109.1848 -11.19069,-3.0245 -10.88824,-4.5368 z"
       style="fill:none;stroke:#000000;stroke-width:1.1"
       id="path1208" />
    <path
       d="m 874.13152,-1031.7579 -3.93187,1.8147 -3.93186,1.2098 -4.53677,0.3024 -107.97504,-19.9617 -107.37013,-19.0545 -4.83922,-1.8147 -4.83922,-2.722 -4.53677,-3.0245 -3.93186,-3.6294 6.35147,-42.9481 28.73286,-187.2172 18.44951,3.0245 237.12166,40.8309 1.81471,0.6049 0.90735,0.6049 0.6049,0.9073 0.6049,0.6049 0.30246,0.9074 0.30245,1.2098 v 1.8147 l -0.30245,0.9074 -40.226,215.6476 -1.81471,4.8392 -3.32696,2.7221 z"
       style="fill:none;stroke:#000000;stroke-width:1.1"
       id="path1210" />
    <path
       d="m 1338.3939,736.37117 -14.2152,6.35147 -145.7814,-29.0353 23.5912,-126.12211 18.1471,-14.8201 59.8853,9.98088 83.174,13.91276 z"
       style="fill:none;stroke:#000000;stroke-width:1.1"
       id="path1212" />
    <path
       d="m 1214.0865,375.24457 h 0.3025 l 16.6348,-89.82798 25.7084,-134.89319 0.9073,-3.93186 -170.8849,-27.52305 -47.7872,222.90645 h 0.6049 l 32.9671,6.35148 -1.2098,4.83921 31.7574,6.35148 1.5123,-6.04902 82.2666,16.63481 z"
       style="fill:none;stroke:#000000;stroke-width:1.1"
       id="path1214" />
    <path
       d="m 2524.6071,-635.24454 -1.8147,0.90736 -2.4196,0.6049 -2.1171,0.30245 -56.2559,-0.6049 -3.0246,0.6049 -3.9318,1.51225 -3.327,2.72206 -5.7465,4.83922 -4.2344,3.62941 -2.722,3.93187 -2.7221,3.32696 -1.8147,3.02451 -2.4196,2.72206 -3.9319,3.62941 -4.5367,2.72206 -2.7221,1.81471 -3.0245,1.20981 -14.5177,0.90735 -308.1976,2.72206 -12.0981,-1.81471 -35.9916,-3.32696 -2.1172,-4.53677 -2.7221,-0.6049 -2.4196,-0.90735 -2.4196,-1.51226 -2.1171,-1.8147 -1.8147,-1.81471 -1.5123,-2.41961 -0.9073,-2.72206 -0.9074,-2.41961 5.4441,-9.37598 v -57.46571 l 2.1172,-87.40837 1.2098,-57.76815 2.4196,-74.40297 1.5122,-68.0515 2.1172,-70.47109 0.3025,-32.0598 1.8147,-50.2069 1.2098,-3.9319 1.5122,-3.9318 2.4196,-3.327 3.0245,-3.0245 3.327,-2.4196 3.6294,-1.8147 3.9319,-1.2098 4.2343,-0.6049 21.1716,0.9073 101.926,4.2343 0.9073,3.9319 3.0246,6.3515 3.9318,5.7465 5.1417,5.1417 5.7466,3.9319 6.3514,3.0245 6.9564,1.8147 6.9564,0.6049 6.9564,-0.6049 6.9563,-1.8147 6.3515,-3.0245 5.7466,-3.9319 4.8392,-5.1417 4.2343,-5.7465 3.0245,-6.3515 0.3025,-1.2098 v -0.9074 l 80.7544,0.9074 104.3456,3.327 47.7873,2.4196 23.2887,0.3024 6.9564,0.3025 h 3.0245 l 4.2343,1.2098 1.5123,1.2098 2.7221,2.4196 1.2098,2.4196 1.2098,2.7221 0.6049,3.0245 -1.5123,16.0299 -3.6294,38.4113 -2.4196,30.2451 -2.4196,40.83087 -3.327,128.54171 -1.8147,96.4819 -1.8147,93.15494 -0.3024,28.73285 v 2.41961 l -0.6049,2.11716 -1.2098,2.11716 -1.2099,1.8147 -1.5122,1.51226 z"
       style="fill:none;stroke:#000000;stroke-width:1.1"
       id="path1216" />
    <path
       d="m 2027.3775,-1882.2504 -561.6516,-104.9505 -0.3025,0.6049 -25.1034,143.6642 386.8349,72.2859 171.7922,32.3622 2.7221,-0.6049 0.9073,-5.7465 5.4442,-1.2099 5.4441,-2.1171 5.4441,-2.7221 4.5368,-4.2343 1.8147,-3.9319 0.3024,-2.1171 3.327,-0.6049 6.6539,-3.6294 4.5368,-100.7162 a 16.084494,16.084494 0 0 0 -12.703,-16.3324 z"
       style="fill:none;stroke:#000000;stroke-width:1.1"
       id="path1218" />
    <path
       d="m -479.33713,-2500.4604 134.28829,-771.2503 2.41961,-3.327 5.74657,1.2098 2430.19456,570.1203 -1.8147,54.1388 -1.5123,44.1578 -2.4196,48.3922 -2.1172,50.2069 -2.722,79.8471 -1.5123,37.8064 -0.9073,6.6539 -1.5123,44.4603 -2.4196,62.9098 -2.1171,45.0652 -1.8147,37.504 -3.0246,64.7245 -1.5122,49.9044 -3.327,85.8962 -3.3269,63.8171 -4.8393,120.9805 -2.722,58.9779 9.0735,17.5422 -2.1171,84.6863 -1.8147,75.3103 -3.327,98.2966 -3.6294,140.0349 -2.7221,112.5118 v 2.1172 l 0.6049,2.1171 0.9074,1.8147 1.2098,1.8147 1.5122,1.8147 1.5123,1.2098 2.1171,0.9074 1.8148,0.6049 2.1171,0.3024 13.9128,0.3025 v 32.3623 l 7.8637,4.8392 8.4686,3.9318 9.0736,2.4197 9.3759,0.9073 9.0736,-0.3024 h 75.0078 l 0.6049,-2.1172 3.0246,-6.3515 3.9318,-5.7465 5.1417,-4.8393 5.7466,-4.2343 6.3514,-2.722 6.9564,-2.1172 6.9564,-0.6049 6.9564,0.6049 6.9563,2.1172 6.3515,2.722 5.7466,4.2343 4.8392,4.8393 4.2343,5.7465 3.0245,6.3515 0.9074,3.9319 35.6892,3.3269 29.6402,0.9074 167.2555,1.5122 h 39.6211 l 1.8147,-0.9073 3.0245,-1.8147 1.8147,-1.5123 2.722,-2.4196 2.1172,-2.4196 1.5123,-2.7221 3.6294,-13.3078 6.049,-22.0789 v -0.9074 l 4.2343,-18.4495 -4.5368,-3.6294 -3.6294,-2.7221 -6.049,-3.9318 -6.9564,-3.327 -47.7872,-0.6049"
       style="fill:none;stroke:#000000;stroke-width:1.1"
       id="path1220" />
    <path
       d="m 818.78297,-545.11411 1.2098,4.23431 v 1.51226 l 253.75643,43.25051 h 3.327 l 3.6294,-0.90736 3.327,-1.8147 3.0245,-2.11716 2.722,-2.41961 1.8148,-2.72206 7.8637,-35.68923 -3.327,-3.93186 -283.6991,-44.76277 -1.81471,-0.30245 -5.74657,31.45492 v 0.30245 l 3.62941,1.51225 3.32696,2.41961 3.02451,3.02451 2.11716,3.32697 z"
       style="fill:none;stroke:#000000;stroke-width:1.1"
       id="path1222" />
    <path
       d="m 1832.599,-613.46806 h -1.2098 l -396.5134,-69.8662 13.9128,-71.68091 17.5422,-91.94513 6.6539,-39.01619 3.3269,-19.35687 365.361,64.72453 3.6294,6.65392 -5.7466,213.83293 -0.3024,1.2098 a 5.373297,5.373297 0 0 1 -6.654,5.44412 z"
       style="fill:none;stroke:#000000;stroke-width:1.1"
       id="path1224" />
    <path
       d="m 260.1558,664.69026 -0.6049,-2.11716 v -2.11715 -2.11716 l 7.56127,-56.86081 4.23432,-2.72206 59.28041,11.7956 3.02451,4.83921 -8.46863,57.46571 -11.49314,6.65392 -49.60198,-9.07353 -2.11716,-2.11716 -1.2098,-1.8147 z"
       style="fill:none;stroke:#000000;stroke-width:1.1"
       id="path1226" />
    <path
       d="m 565.32895,-787.67989 -7.25882,-0.90735 4.23431,-27.52305 -65.63189,-11.49314 -10.28333,5.44412 -11.19069,71.98336 10.88824,11.19069 -2.41961,18.75197 -15.12256,12.40049 -14.51765,91.94513 7.86373,0.90735 7.56127,10.88824 41.43581,6.35148 18.75196,-15.42501 6.95638,1.20981 z"
       style="fill:none;stroke:#000000;stroke-width:1.1"
       id="path1228" />
    <path
       d="m 513.60982,-1091.0383 37.50393,-240.4487"
       style="fill:none;stroke:#000000;stroke-width:1.1"
       id="path1230" />
    <path
       d="m 993.29725,-1545.3199 300.03145,56.8608 8.7711,8.1662 -8.4686,35.6892 -35.0843,160.6016 -4.2344,18.4495 -8.1661,37.5039 -301.84623,-51.7191 -1.51225,-1.5123 -1.81471,-3.6294 -0.6049,-1.8147 2.11715,-11.7956 1.51226,-8.1662 42.94806,-232.8873 z"
       style="fill:none;stroke:#000000;stroke-width:1.1"
       id="path1232" />
    <path
       d="m 963.65704,-1475.7561 -25.70834,138.825 -5.14167,28.7329 -3.62941,19.3568 -0.6049,1.5123 -2.41961,2.4196 -1.20981,0.9074 -1.8147,0.6049 -254.96628,-43.8554 2.11716,-16.0299 32.96717,-201.7349 5.74657,-39.3187 15.42501,-12.098 247.40499,46.8799 3.32696,7.5613 -3.62941,20.5667 z"
       style="fill:none;stroke:#000000;stroke-width:1.1"
       id="path1234" />
    <path
       d="m 202.69009,-50.304123 13.6103,-109.184847 0.30245,-0.90735 0.30245,-1.51226 9.07353,-5.14166 1.81471,0.30245 133.98584,27.22059 6.35147,1.20981 -1.51226,10.58579 -17.54216,109.789744 -12.4005,-2.117158 -128.23926,-22.381381 a 6.987516,6.987516 0 0 1 -5.74657,-7.863728 z"
       style="fill:none;stroke:#000000;stroke-width:1.1"
       id="path1236" />
    <path
       d="m 392.93183,-300.43118 -16.33236,106.46279 -145.17653,-28.73286 -6.04902,-10.28333 v -0.30245 l 1.51226,-9.07354 13.6103,-95.27209 0.30245,-2.11716 0.90735,-1.81471 0.90735,-1.51225 3.02452,-3.02451 1.8147,-0.90736 1.81471,-0.6049 2.11716,-0.30245 h 1.8147 l 2.11716,0.30245 125.21475,30.54756 2.41961,0.90736 2.41961,1.2098 2.11716,1.81471 1.8147,1.8147 1.51226,2.11716 1.2098,2.72206 0.60491,2.41961 0.30245,2.72206 z"
       style="fill:none;stroke:#000000;stroke-width:1.1"
       id="path1238" />
    <path
       d="m 16.682668,-418.68955 -77.42748,-19.05442 -3.326962,-1.20981 -3.024511,-1.51225 -2.722059,-2.11716 -2.419609,-2.41961 -1.814707,-3.02451 -1.512255,-3.02451 -0.907353,-3.32696 -0.302452,-3.32697 v -0.90735 l 0.302452,-2.41961 28.732853,-195.3834 3.024511,-0.60491 3.024511,-1.2098 2.72206,-1.81471 2.419609,-2.11715 2.117158,-2.41961 1.512255,-2.72206 117.048573,21.47402 -1.209804,5.74657 -38.411289,203.54959 -0.907353,3.62941 -1.512256,3.32697 -2.117157,4.53676 -13.6103,8.77108 z"
       style="fill:none;stroke:#000000;stroke-width:1.1"
       id="path1240" />
    <path
       d="m -11.747734,-901.70395 2.117157,-14.2152"
       style="fill:none;stroke:#000000;stroke-width:1.1"
       id="path1242" />
    <path
       d="m 60.840528,-1388.6502 -16.937261,116.4437 -13.307848,89.8279 1.814706,3.327 14.517653,2.4196 132.171132,24.4985 7.25882,-37.2014 37.80639,-197.5006 -134.590738,-22.3814 a 24.404421,24.404421 0 0 0 -28.732854,20.5667 z"
       style="fill:none;stroke:#000000;stroke-width:1.1"
       id="path1244" />
    <path
       d="m -470.86849,544.31473 0.30245,-0.60491 1.51225,-12.09804 38.41129,-267.06432 -0.90735,-0.30245 h -0.6049 l -161.50889,-31.45491 -4.23431,-0.6049 h -0.90736 l -1.51225,0.6049 -0.90736,1.2098 -0.90735,2.41961 -0.6049,1.51226 -0.30245,2.41961 v 2.72206 l -4.23432,57.76816 1.20981,75.61277 2.72206,71.07601 4.23431,74.70542 124.9123,21.47402 7.25883,1.20981 222.30155,38.10884 39.92355,-269.48393 -8.77108,-7.25882 -72.28581,-14.51766 h -1.20981 l -117.95593,-22.68383 h -0.30245 l -36.59658,254.66382 -3.62941,23.89364 v 0.90735"
       style="fill:none;stroke:#000000;stroke-width:1.1"
       id="path1246" />
    <path
       d="m -338.99982,-130.15121 178.44615,29.94266 h 3.62941 l 3.62941,-0.30245 3.32697,-0.90736 3.32696,-1.51225 3.32696,-3.62942 2.72206,-4.23431 17.84461,-118.86328 -20.56667,-3.93187 1.51226,-8.46863 -189.63684,-38.10883 -18.75197,134.89318 a 13.90443,13.90443 0 0 0 11.19069,15.12256 z"
       style="fill:none;stroke:#000000;stroke-width:1.1"
       id="path1248" />
    <path
       d="m -299.37872,-510.33224 1.2098,-9.37598 25.70834,-174.21183 12.4005,-9.67843 189.939285,30.2451 0.604902,3.32697 1.209804,3.02451 1.814707,3.02451 2.117157,2.41961 2.72206,2.11715 2.72206,1.51226 -28.732854,197.19811 a 14.130513,14.130513 0 0 1 -17.844611,11.7956 l -180.86576,-45.06522 a 14.762898,14.762898 0 0 1 -13.00539,-16.33236 z"
       style="fill:none;stroke:#000000;stroke-width:1.1"
       id="path1250" />
    <path
       d="m 527.82502,-303.45569 197.80301,47.48482 16.02991,-14.2152 13.30785,-73.79806 -225.93097,-57.16326 2.41961,-13.0054 224.72116,56.86081 27.52305,-150.01575 1.51226,-8.16617 -2.41961,-1.20981 -2.72206,-2.11716 -2.41961,-2.72206 -2.11716,-3.02451 -1.51225,-3.32696 -209.59861,-36.29413 -28.73285,11.19069 -32.66472,207.179 -1.51226,9.07353 0.6049,0.90735 8.77109,11.19069 8.46863,11.1907 -1.20981,7.56127 z"
       style="fill:none;stroke:#000000;stroke-width:1.1"
       id="path1252" />
    <path
       d="m -277.29979,1014.0213 1.2098,-9.376 1.51225,-12.09805 0.90736,-1.51226 2.41961,-0.90735 2.72206,-0.30245 61.09512,9.67843 182.378007,30.84998 48.089724,9.0736"
       style="fill:none;stroke:#000000;stroke-width:1.1"
       id="path1254" />
    <path
       d="m 979.3845,101.82878 32.6647,5.14166 -3.6294,18.14707 -111.302,534.43108 -2.72206,-0.30245 -32.66472,-6.35147 -6.35147,-1.20981 110.39465,-533.22127 0.6049,-2.41961 z"
       style="fill:none;stroke:#000000;stroke-width:1.1"
       id="path1256" />
    <path
       d="m -1177.9992,-2541.2913 133.9859,17.2397 7.2588,0.9073 1.2098,0.3025 0.9074,0.6049 1.2098,0.6049 1.8147,1.8147 0.6049,0.9074 0.6049,1.2098 0.3024,1.2098 v 1.2098 4.5367 l 10.8883,427.3634 -0.6049,3.6294 -0.6049,1.8147 -2.4196,3.0246 -3.0246,1.8147 -1.8147,0.6049 -1.8147,0.3024 h -1.8147 l -128.2392,-11.4931"
       style="fill:none;stroke:#000000;stroke-width:1.1"
       id="path1258" />
    <path
       d="m -1122.3481,-3096.5915 80.4519,-0.3025 h 1.8147 l 3.327,0.3025 3.0245,0.6049 3.0245,1.2098 2.7221,1.8147 2.7221,2.1171 2.1171,2.4196 1.5123,3.0246 1.2098,3.0245 0.9073,3.3269 v 3.327 l -4.5367,200.5251 -0.3025,2.722 -0.9073,2.7221 -1.2099,2.4196 -1.8147,2.4196 -1.8147,2.1172 -2.4196,1.5122 -2.4196,1.2098 -2.722,0.6049 -3.0246,0.3025 -8.771,0.3024 -106.4628,1.2098"
       style="fill:none;stroke:#000000;stroke-width:1.1"
       id="path1260" />
    <path
       d="m -1135.656,-3358.8166 101.3211,-2.1172 h 3.327 l 3.3269,0.9074 3.0246,1.2098 2.722,1.8147 2.7221,2.1171 2.1171,2.4196 1.8147,3.0245 1.2098,3.0246 0.6049,3.3269 0.3025,3.327 -4.5368,192.6613 -0.6049,4.2343 -0.9073,3.6295 -1.8147,3.9318 -2.4196,3.0245 -2.7221,3.0245 -3.327,2.4197 -3.6294,1.5122 -3.9318,1.2098 -4.2344,0.3025 h -0.6049 l -80.7544,1.8147"
       style="fill:none;stroke:#000000;stroke-width:1.1"
       id="path1262" />
    <path
       d="m 65.074843,888.50407 -1.814706,2.41961 -1.512256,10.58579 -22.07893,-2.72206 2.117158,-11.49314 v -2.41961 l -0.302451,-2.72206 -0.907353,-1.20981 -0.302451,-1.2098 20.869125,-129.44907 13.307848,-82.8716 0.907353,-4.23431 v -1.20981 l -2.117157,-3.02451 -1.512256,-3.02451 -0.907353,-3.62941 -0.604902,-3.32697 -37.806387,-6.04902 -80.451991,-13.30784 -42.948055,263.4349 -1.209804,7.56127 155.459862,24.80099 56.860803,8.77109 1.81471,-14.21521 80.45199,12.70295 37.20148,-235.0045 3.02451,-17.84461 -128.54171,-23.28874 -1.81471,3.02451 -2.11715,3.02451 -2.41961,2.41961 -3.02451,2.11716 -7.25883,45.97257 -5.74657,35.38677 -13.005398,77.42748 -9.073532,49.90443 -1.209805,8.16618 -1.814706,2.72206 z"
       style="fill:none;stroke:#000000;stroke-width:1.1"
       id="path1264" />
    <path
       d="m 800.6359,-513.35675 3.93187,-0.90735 3.93186,-1.81471 3.32696,-2.41961 3.02451,-3.02451 2.11716,-3.32696 0.90736,-1.8147 257.99078,43.55295 2.1172,1.20981 1.8147,1.51225 1.2098,1.51226 1.2098,2.11716 0.9073,2.11715 0.3025,2.41961 v 1.81471 l -36.8991,166.3481 -4.2343,19.05442 -273.41576,-69.2613 29.33775,-158.78683 z"
       style="fill:none;stroke:#000000;stroke-width:1.1"
       id="path1266" />
    <path
       d="m 356.6377,4.137073 48.69462,8.16618 -2.72206,21.776479 5.74657,4.839217 16.02991,2.72206 3.93187,6.351473 -3.62942,22.07893 -14.8201,92.852488 -5.74657,35.99168 -13.0054,81.05689 -12.09804,6.65392 -40.226,-6.35147 -24.80099,-3.93186 z"
       style="fill:none;stroke:#000000;stroke-width:1.1"
       id="path1268" />
    <path
       d="m -19.913914,-917.73386 -2.117158,15.12255 -22.986283,150.62065 -8.46863,56.8608 -3.024511,0.60491 -2.72206,1.2098 -2.72206,1.51226 -2.419609,1.8147 -2.117157,2.41961 -0.604903,1.20981 -191.753995,-29.94266 -8.77108,-10.58579 33.26962,-226.83832 0.30245,-0.90735 z"
       style="fill:none;stroke:#000000;stroke-width:1.1"
       id="path1270" />
    <path
       d="m 205.7146,-24.898232 2.11716,-0.604902 1.81471,-0.302451 h 2.11715 l 123.7025,22.07893 9.37598,12.098044 -41.4358,260.410391 -130.05397,-22.07893 -6.95637,-8.46863 -0.6049,-0.90735 33.26962,-254.966275 0.90735,-2.117158 2.41961,-3.024511 1.81471,-1.209804 z"
       style="fill:none;stroke:#000000;stroke-width:1.1"
       id="path1272" />
    <path
       d="m -387.39199,-138.61984 -2.72206,-0.30245 -56.86081,-9.67844 -149.10839,-24.80099 -3.02451,-1.2098 -3.02451,-1.20981 -2.41961,-2.11715 -2.11715,-2.11716 -1.81471,-2.72206 -1.81471,-3.02451 0.30245,-28.43041 -3.02451,-126.1221 1.20981,0.30245 264.0398,56.55835 -20.86912,129.14662 a 18.419317,18.419317 0 0 1 -18.75197,15.72746 z"
       style="fill:none;stroke:#000000;stroke-width:1.1"
       id="path1274" />
    <path
       d="m -374.68905,-124.40464 -1.51225,8.46863 -51.41669,352.05307 0.90735,0.30245 -0.30245,4.53677 h -1.2098 l -0.30245,3.02451 v 1.2098 l -1.20981,1.20981 v 2.72206 l -162.71868,-30.54756 -9.98089,-3.62941 v -6.65393 l -6.95637,-359.00945 v -1.8147 l 1.2098,-3.02451 0.90735,-1.51226 0.90736,-1.2098 1.2098,-1.20981 1.51226,-0.90735 1.51225,-0.6049 1.81471,-0.30245 1.51225,-0.30246 1.51226,0.30246 h 0.30245 l 140.03486,22.38138 z"
       style="fill:none;stroke:#000000;stroke-width:1.1"
       id="path1276" />
    <path
       d="m -1091.4981,-165.84044 424.6413,87.408365 4.53676,131.868677 0.90736,81.964248 0.30245,1.8147 0.6049,2.72206 0.30245,1.51226 0.90736,2.11716 1.8147,1.8147 2.11716,1.20981 2.72206,1.2098 2.72206,0.60491 2.72206,0.30245 10.88824,-0.60491 3.93186,-0.30245 2.11716,-0.30245 2.41961,-0.30245 2.11716,-0.6049 1.2098,-0.6049 1.2098,-0.90736 -22.98628,-1189.84258 3.32696,0.6049 -16.33235,-798.1685 -5.44412,-33.8745 70.16865,-378.6687 v -0.3025 l 0.6049,-3.6294 -0.30245,-3.6294 -0.90735,-3.6294 -1.20981,-3.6294 -1.81471,-3.0246 -2.4196,-2.722 -2.72206,-2.4196 -3.02451,-2.1172 -3.32697,-1.5122 -3.62941,-0.9074 -151.528,-26.9181 -11.79559,13.0054 -11.49314,34.4794 -65.02699,-13.3079 0.60491,-37.2015 -105.25298,-19.3568 -17.84462,-9.376 -17.54216,0.3024 -0.90736,0.3025 h -0.90735 l -1.81471,1.2098 -1.2098,1.2098 -0.6049,0.9074 -0.6049,1.8147 v 0.9073 l 26.31324,952.1161 -26.91815,1.2098 -6.95634,-255.8737 -0.3025,-2.1171 -0.6049,-2.1172 -0.9073,-2.1171 -1.2098,-1.8147 -1.8147,-1.5123 -1.8148,-1.2098 -2.1171,-0.9074 -2.1172,-0.6049 h -3.9318 l -129.1467,1.8148"
       style="fill:none;stroke:#000000;stroke-width:1.1"
       id="path1278" />
    <path
       d="m 1899.1383,-617.70237 v 1.2098 l -0.3025,0.30245 -0.6049,1.2098 -0.6049,0.60491 h -0.9073 l -0.9074,-0.30245 -1.2098,-0.60491 -1.2098,-1.2098"
       style="fill:none;stroke:#000000;stroke-width:0.9"
       id="path1280" />
    <path
       d="m 1918.1927,-612.86316 h -0.9074 l -1.8147,-1.8147 v -1.20981"
       style="fill:none;stroke:#000000;stroke-width:0.9"
       id="path1282" />
    <path
       d="m 404.42497,-2277.554 4.53677,-3.3269"
       style="fill:none;stroke:#000000;stroke-width:0.9"
       id="path1284" />
    <path
       d="m 2500.7135,-1132.4741 -2.4196,498.74182"
       style="fill:none;stroke:#000000;stroke-width:1.1"
       id="path1286" />
    <path
       d="m -648.10483,148.7087 -0.30246,-5.74658 -9.67843,-499.0443 -20.56667,-1023.79692 -6.04903,-331.184 -101.92602,3.6294 -143.36181,3.6294 -42.04071,0.9074 -9.98088,-638.1718"
       style="fill:none;stroke:#000000;stroke-width:1.1"
       id="path1288" />
    <path
       d="m 919.49918,1084.7948 -42.0407,25.1035 -366.87318,-64.1197 -75.31032,-13.3078 -0.6049,3.0245 -6.04902,-0.9074 -1.81471,10.8883 -8.46863,6.3515 -54.4412,-9.6785 -6.04902,-7.2588 0.90736,-6.049 -53.2314,-9.376 -0.6049,3.6294 -10.88824,8.7711 -0.6049,3.6294 -1.81471,1.8147 -36.89903,-6.6539 -1.81471,-1.8147 0.6049,-3.6294 -6.65392,-12.4005 0.6049,-3.327 -50.50933,-8.7711 -10.58579,9.0736 -55.34855,-9.6785 -4.83922,-8.16615 2.11716,-10.58579 -23.89364,-4.23432 0.30246,-2.41961 -426.45604,-75.00787 -300.33394,3.32696 -6.95638,-6.95637 -6.35147,-215.04273 -12.40049,-512.95705 v -4.23432"
       style="fill:none;stroke:#000000;stroke-width:1.1"
       id="path1290" />
    <path
       d="m 2498.2939,-584.43275 -0.3025,11.49314 -2.722,137.01034 -1.8147,84.08141 -3.327,189.33438 -4.2343,152.435352 -1.8147,124.004948 -2.4196,143.96672 -1.5123,53.83629 -185.7049,34.47943 -27.5231,6.35147 -7.8637,1.20981 -35.3868,-4.23432 -215.3452,38.10884 -81.6618,47.18237 -6.9564,2.41961 -9.0735,0.90735 -11.7956,5.44412 -98.599,53.53385 -1.2098,12.09804 -127.6344,75.00787 -98.2966,66.84169 -71.076,52.62649 -134.5907,102.53092 -5.1417,3.62942 -61.0951,40.83089 -91.3403,64.42209 -39.9235,1.8147 -226.83833,153.64513"
       style="fill:none;stroke:#000000;stroke-width:1.1"
       id="path1292" />
    <path
       d="m 272.55629,1471.0249 7.56128,-60.4902"
       style="fill:none;stroke:#000000;stroke-width:1.1"
       id="path1294" />
    <path
       d="m 272.55629,1471.3273 194.77851,23.5912 -32.96717,178.1437 342.97954,80.7544 73.19316,-397.1182 7.56128,-41.1334 21.47403,-113.1167 -81.6618,-14.2152 -21.47403,-3.9319 -57.4657,-9.9808 -2.72206,-0.3025 -186.61233,-28.1279"
       style="fill:none;stroke:#000000;stroke-width:1.1"
       id="path1296" />
    <path
       d="m 167.90822,1400.5538 -3.02452,30.2451 -39.62109,-10.5858 -28.127951,-7.2588 -15.122554,-6.3515 L 58.420919,1392.69 41.181207,1379.6846 20.00963,1361.84 l -24.800989,-25.4059 -22.986283,-30.2451 -29.337756,-46.8799 -17.844615,-28.1279 -45.670117,-6.3515 25.405894,-184.4952 46.577468,5.7466"
       style="fill:none;stroke:#000000;stroke-width:1.1"
       id="path1298" />
    <path
       d="m 107.72045,1056.062 -24.800992,-3.9319"
       style="fill:none;stroke:#000000;stroke-width:1.1"
       id="path1300" />
    <path
       d="m 111.31616,1059.7801 a 4.083093,4.083093 0 0 0 -3.35028,-3.1556"
       style="fill:none;stroke:#000000;stroke-width:1.1"
       id="path1302" />
    <path
       d="m 111.65231,1062.4134 -0.6049,-3.0245"
       style="fill:none;stroke:#000000;stroke-width:1.1"
       id="path1304" />
    <path
       d="m 112.03638,1062.675 a 1.058581,1.058581 0 0 0 0.62487,0.7714"
       style="fill:none;stroke:#000000;stroke-width:1.1"
       id="path1306" />
    <path
       d="m 415.01076,1116.2497 -302.4511,-52.9289"
       style="fill:none;stroke:#000000;stroke-width:1.1"
       id="path1308" />
    <path
       d="m 415.00078,1116.7438 a 1.361037,1.361037 0 0 0 1.5168,-0.8815"
       style="fill:none;stroke:#000000;stroke-width:1.1"
       id="path1310" />
    <path
       d="m 417.12792,1113.8301 -0.60491,1.5123"
       style="fill:none;stroke:#000000;stroke-width:1.1"
       id="path1312" />
    <path
       d="m 424.00794,1112.0487 a 4.385533,4.385533 0 0 0 -6.57002,2.2395"
       style="fill:none;stroke:#000000;stroke-width:1.1"
       id="path1314" />
    <path
       d="m 446.76812,1115.9473 -22.98628,-4.5368"
       style="fill:none;stroke:#000000;stroke-width:1.1"
       id="path1316" />
    <path
       d="m 454.40235,1124.9949 a 8.922309,8.922309 0 0 0 -7.28238,-8.9855"
       style="fill:none;stroke:#000000;stroke-width:1.1"
       id="path1318" />
    <path
       d="m 452.51469,1137.1189 1.51226,-12.4005"
       style="fill:none;stroke:#000000;stroke-width:1.1"
       id="path1320" />
    <path
       d="m 451.44499,1144.7009 a 40.377261,40.377261 0 0 0 1.4963,-7.246"
       style="fill:none;stroke:#000000;stroke-width:1.1"
       id="path1322" />
    <path
       d="m 442.71798,1168.0757 a 255.71871,255.71871 0 0 0 8.46538,-23.5985"
       style="fill:none;stroke:#000000;stroke-width:1.1"
       id="path1324" />
    <path
       d="m 434.64634,1186.9921 a 314.09342,314.09342 0 0 0 8.44817,-18.6162"
       style="fill:none;stroke:#000000;stroke-width:1.1"
       id="path1326" />
    <path
       d="m 369.66381,1260.9937 a 127.18053,127.18053 0 0 0 35.02888,-30.4512"
       style="fill:none;stroke:#000000;stroke-width:1.1"
       id="path1328" />
    <path
       d="m 248.30423,1316.2744 a 37.05024,37.05024 0 0 0 -12.19952,12.462"
       style="fill:none;stroke:#000000;stroke-width:1.1"
       id="path1330" />
    <path
       d="m 236.0433,1328.5658 a 33.420855,33.420855 0 0 0 -7.2666,-13.3765"
       style="fill:none;stroke:#000000;stroke-width:1.1"
       id="path1332" />
    <path
       d="m 97.43711,1201.2385 22.07893,29.0353"
       style="fill:none;stroke:#000000;stroke-width:1.1"
       id="path1334" />
    <path
       d="m 82.545858,1171.5342 a 84.837552,84.837552 0 0 0 14.936905,30.0755"
       style="fill:none;stroke:#000000;stroke-width:1.1"
       id="path1336" />
    <path
       d="m 82.39124,1171.591 a 1098.7425,1098.7425 0 0 0 -9.649047,-33.8303"
       style="fill:none;stroke:#000000;stroke-width:1.1"
       id="path1338" />
    <path
       d="m 69.545168,1108.2204 a 83.62778,83.62778 0 0 0 3.409913,29.5827"
       style="fill:none;stroke:#000000;stroke-width:1.1"
       id="path1340" />
    <path
       d="m 69.309159,1107.7811 1.209804,-36.2941"
       style="fill:none;stroke:#000000;stroke-width:1.1"
       id="path1342" />
    <path
       d="m 72.901962,1061.9259 a 82.114141,82.114141 0 0 0 -2.095763,10.0832"
       style="fill:none;stroke:#000000;stroke-width:1.1"
       id="path1344" />
    <path
       d="m 83.350906,1052.3616 a 11.341925,11.341925 0 0 0 -10.477807,9.3295"
       style="fill:none;stroke:#000000;stroke-width:1.1"
       id="path1346" />
    <path
       d="m 49.649838,-1388.3478 -30.547561,204.457 -3.326962,1.8147 -208.388805,-36.899 -3.32696,-7.5613 12.09804,-89.828 116.746125,14.5177 25.708343,-127.332 68.051496,9.376 a 27.846833,27.846833 0 0 1 22.986284,31.4549 z"
       style="fill:none;stroke:#000000;stroke-width:1.1"
       id="path1348" />
    <path
       d="m 58.420919,-1445.8135 37.806387,-258.5957 -9.980886,-12.7029 -711.96987,-135.1956 -15.42501,-3.0245 h -0.90735 l -0.90736,0.3024 -2.72206,1.8147 -0.30245,0.9074 -0.6049,0.9073 -0.30245,0.9074 4.83922,260.4104 0.6049,25.7083 12.09804,11.4931 39.92355,-2.722 -2.72206,-167.5579 -9.98089,0.3024 -1.2098,-39.0162 9.98088,-0.3024 -1.2098,-28.7329 25.10344,-1.2098 571.027664,118.8633 -39.923545,227.7457 78.637285,12.7029 a 15.214489,15.214489 0 0 0 18.147065,-13.0054 z"
       style="fill:none;stroke:#000000;stroke-width:1.1"
       id="path1350" />
    <path
       d="m -595.47834,-1392.5821 v -8.7711 l -0.30246,8.7711 395.30358,73.7981 -9.37598,91.0378 -5.14167,4.8392 -408.91388,-69.5638 -11.49314,-9.6784 -0.90735,-0.9074 -4.23432,-217.7647 18.14707,-17.2398 36.29413,-0.6049"
       style="fill:none;stroke:#000000;stroke-width:1.1"
       id="path1352" />
    <path
       d="m 1578.5401,571.23287 -45.0652,-67.74904 49.9044,-33.26962 -65.6319,-22.38138 -19.0544,47.78727 -8.1662,-1.2098 -58.9779,-9.98089 -3.6294,-0.6049 -4.2343,-3.02451 -2.4197,-3.93187 -1.5122,-4.53676 -1.5123,-3.32697 -2.1171,-3.62941 -2.7221,-2.41961 -3.0245,-2.11715 -4.2343,-3.62942 -1.5123,-1.51225 -1.5122,-4.83922 -1.2098,-8.77108 48.6946,-264.94716 395.606,63.81718 2.4196,-14.51765 -150.9231,-22.68384 -224.4187,-35.99168 a 11.182441,11.182441 0 0 1 -9.6784,-12.70294 l 31.7574,-179.353499 23.8936,-6.049022 104.3456,21.171576 282.1869,66.23679 3.0245,0.604902 7.2588,-31.152463 -91.0377,-19.961772 -62.0025,-13.91275 -66.5393,-15.122555 -110.6971,-24.498538 -50.8117,-9.375984 -23.5912,-4.839218 -10.5858,-8.46863 -13.3079,-2.419609 16.0299,-70.471108 12.4005,-52.92894 4.2344,-16.33236 7.8637,-23.89363 2.722,-7.86373 1.5123,-2.41961 1.2098,-1.2098 1.2098,-0.60491 0.9074,-0.30245 h 2.1171 l 0.3025,-0.90735 54.4412,-284.90893 19.0544,-98.59906 139.4299,23.89364 80.7545,14.2152 6.049,1.2098 16.9373,3.02452 7.5612,0.90735 7.8638,0.90735 18.147,1.51226 4.8393,5.14167 57.7681,-0.90736 26.0108,0.30245 h 10.5858 a 8.871472,8.871472 0 0 1 8.7711,7.86373 l 0.9073,6.35147 2.7221,13.91276 1.8147,8.16617 2.7221,5.44412 4.2343,0.90736 1.8147,1.2098 5.7465,22.98629 12.4005,18.44951 6.9564,6.95638 21.474,-0.30245 18.752,11.19069 13.0054,7.86373 14.5177,9.07353 2.4196,5.44412 -1.2098,26.01079 -2.7221,31.75737 -3.327,18.44951 -8.771,44.46031 -9.9809,45.97257 -17.2397,81.96425 -8.4687,43.8554 -8.4686,42.94806 -0.6049,19.05442 0.9074,24.196086 3.0245,17.844615 6.3514,23.893636 6.9564,18.751968 11.4932,21.474027 30.2451,42.645605 25.7083,33.26962 7.8637,9.375984 14.5177,12.098039 28.7328,17.23972 39.0162,14.8201 16.0299,11.19069 5.7466,6.35147 2.4196,7.25883 1.8147,14.51765 3.6294,28.4304 5.1417,16.33236 -2.7221,1.81471 6.654,53.23139 7.8637,61.70003 20.5667,-3.32697 -11.4932,-63.81718 -5.4441,-40.52844 -2.1171,-9.98089 -0.9074,-3.93186 -1.8147,-7.56128 -0.9074,-3.62941 -2.4196,-13.91275 -0.6049,-5.14167 -8.4686,-45.67012 -15.425,-30.24511 -32.6647,3.93187 h -4.5368 l -17.2397,-8.16618 -26.6157,-29.337758 -3.6294,-5.141669 -9.9809,-8.771082 -12.098,-17.844614 -31.1525,-45.367664 -15.7275,-36.899034 -9.9808,-41.435799 1.5122,-21.47403 1.5123,-25.10344 2.1171,-8.46863 9.0736,-43.55296 9.6784,-45.97256 -0.6049,-8.16618 9.376,-39.01619 5.4441,-22.68384 2.7221,-22.07893 6.9563,-34.47942 6.654,-19.65932 3.9318,-31.45492 2.7221,-25.70834 0.9073,-14.8201 3.327,-4.23432 13.6103,-7.25882 7.2588,-1.51226 13.9128,-0.6049 53.5338,0.30245 153.3427,-0.30245 30.5476,-1.20981 3.9318,-3.02451 22.6839,-0.90735 0.3024,-109.78975 1.2098,-2.4196 1.2098,-2.11716 1.8147,-2.11716 1.8147,-1.81471 2.4197,-1.2098 2.4196,-0.90735 2.722,-0.60491 h 2.4196 l 63.8172,0.90736 h 1.8147 l 2.1172,0.6049 1.5122,0.6049 1.8147,1.20981 1.2098,1.2098 1.5123,1.51225 0.9073,1.51226 0.605,1.81471 0.3024,2.11715 0.3025,1.81471 -2.4197,116.14122 -0.9073,31.75737 -2.7221,137.31279 -1.5122,82.56915 -0.3025,13.0054 -1.2098,45.67011 -6.3515,315.15404 -0.6049,32.66472"
       style="fill:none;stroke:#000000;stroke-width:1.1"
       id="path1354" />
    <path
       d="m 1568.8617,577.58435 -46.275,-65.02699 -34.7819,23.59119 -5.7466,-3.62942 10.8883,-25.40589 -52.6265,-9.37598 -13.0054,-2.11716 -3.327,-1.2098 -4.2343,-3.02452 -3.327,-3.62941 -2.722,-4.23431 -1.5123,-3.02451 -0.6049,-4.23432 -1.5122,-4.83922 -3.0246,-4.23431 -4.8392,-0.90736 h -4.5367 l -42.0407,231.37509 -10.8883,61.70002 -377.7614,-73.49561 -5.44412,29.33775 11.1907,1.51226 112.20932,22.38138 -22.3814,109.4873 -67.749,-98.90151 -22.07892,15.72746 -16.93727,81.05689 -0.30245,2.41961 v 1.51225 l 0.30245,1.51226 0.60491,2.11716 10.58578,15.72745 1.51226,0.6049 h 1.51225 l 1.81471,-0.30245 19.35687,-13.00539"
       style="fill:none;stroke:#000000;stroke-width:1.1"
       id="path1356" />
    <path
       d="m 1648.8434,589.69768 a 54.592426,54.592426 0 0 0 -69.9187,-18.11692"
       style="fill:none;stroke:#000000;stroke-width:1.1"
       id="path1358" />
    <path
       d="m 1569.0345,578.02723 a 54.592419,54.592419 0 0 0 -10.3022,73.32224"
       style="fill:none;stroke:#000000;stroke-width:1.1"
       id="path1360" />
    <path
       d="m 1639.148,596.51004 a 42.494403,42.494403 0 1 0 -70.4567,47.52842"
       style="fill:none;stroke:#000000;stroke-width:1.1"
       id="path1362" />
    <path
       d="m 1648.4063,589.37994 -9.376,6.65392"
       style="fill:none;stroke:#000000;stroke-width:1.1"
       id="path1364" />
    <path
       d="m 1568.5592,643.82114 -9.9809,7.25882"
       style="fill:none;stroke:#000000;stroke-width:1.1"
       id="path1366" />
    <path
       d="m 1521.3769,-2556.7163 46.5774,-248.6148"
       style="fill:none;stroke:#000000;stroke-width:1.1"
       id="path1368" />
    <path
       d="m 1333.2523,-2860.0748 223.5113,52.0216"
       style="fill:none;stroke:#000000;stroke-width:1.1"
       id="path1370" />
    <path
       d="m -38.363431,-1445.511 -30.245109,-7.8637 -81.35934,-62.6074 -24.49854,-8.1662 -26.0108,3.9319 -13.91275,9.3759 -13.00539,22.9863 -4.23432,37.2015 -153.3427,-19.0544 6.04902,-57.7682 -88.61817,-15.7274 -35.99168,-24.801 -2.11716,-128.2393 -4.53677,-14.2152 2.72206,-68.6564"
       style="fill:none;stroke:#000000;stroke-width:1.1"
       id="path1372" />
    <path
       d="m -41.387942,-1429.1787 -35.99168,-6.3514 -81.359348,-62.6074 -11.19069,-3.0245 -11.19069,-0.3025 -9.98088,6.654 -7.86373,10.8882 -2.41961,5.7466 -5.44412,96.4819 2.41961,6.3514 4.83922,4.2344 9.07353,-0.3025 5.74657,-4.5368 8.46863,-14.5176 115.233867,11.1907 -12.400494,76.5201 -8.771082,-1.5123 0.907353,-5.4441 -101.623564,-15.425 -13.0054,98.5991 -13.91275,-1.8147 10.58579,-98.9015"
       style="fill:none;stroke:#000000;stroke-width:1.1"
       id="path1374" />
    <path
       d="m -595.47834,-1401.3532 9.37598,0.3025 v -137.3128"
       style="fill:none;stroke:#000000;stroke-width:1.1"
       id="path1376" />
    <path
       d="m -999.85546,-1381.0889 -6.95634,-252.8491"
       style="fill:none;stroke:#000000;stroke-width:1.1"
       id="path1378" />
    <path
       d="m 404.72427,1230.4164 a 674.31432,674.31432 0 0 0 16.34401,-21.4411 150.77208,150.77208 0 0 0 13.51993,-22.294"
       style="fill:none;stroke:#000000;stroke-width:1.1"
       id="path1380" />
    <path
       d="m 296.24724,1292.2676 a 125.5639,125.5639 0 0 0 43.07529,-14.1471 997.53918,997.53918 0 0 0 30.21092,-17.0856"
       style="fill:none;stroke:#000000;stroke-width:1.1"
       id="path1382" />
    <path
       d="m 296.06186,1292.3403 a 49.753195,49.753195 0 0 0 -22.05266,8.6722 174.39154,174.39154 0 0 1 -25.98882,15.2007"
       style="fill:none;stroke:#000000;stroke-width:1.1"
       id="path1384" />
    <path
       d="m 228.55969,1315.2835 a 69.110059,69.110059 0 0 0 -23.94057,-22.5712 111.87933,111.87933 0 0 0 -20.51759,-13.278 242.7213,242.7213 0 0 1 -34.96433,-20.7402 154.74788,154.74788 0 0 1 -29.46127,-27.9687"
       style="fill:none;stroke:#000000;stroke-width:1.1"
       id="path1386" />
  </g>
  <g
     id="g1658"
     transform="translate(1178.0694,3624.243)" />
</svg>
